<?xml version="1.0" encoding="utf-8"?>
<!-- Generator: Adobe Illustrator 27.5.0, SVG Export Plug-In . SVG Version: 6.00 Build 0)  -->
<svg version="1.1" xmlns="http://www.w3.org/2000/svg" xmlns:xlink="http://www.w3.org/1999/xlink" x="0px" y="0px"
	 viewBox="0 0 500 500" style="enable-background:new 0 0 500 500;" xml:space="preserve">
<g id="BACKGROUND">
	<g>
		<g>
			
				<radialGradient id="SVGID_1_" cx="249.9997" cy="245.1173" r="283.665" gradientTransform="matrix(1 -0.0033 0.0027 0.8303 -0.6659 42.4265)" gradientUnits="userSpaceOnUse">
				<stop  offset="0" style="stop-color:#F2F2F2"/>
				<stop  offset="0.1677" style="stop-color:#EDF1F2"/>
				<stop  offset="0.3706" style="stop-color:#DEEEF2"/>
				<stop  offset="0.5917" style="stop-color:#C6E9F2"/>
				<stop  offset="0.8242" style="stop-color:#A4E2F2"/>
				<stop  offset="0.9838" style="stop-color:#88DCF2"/>
			</radialGradient>
			<path style="fill:url(#SVGID_1_);" d="M410.248,178.408c-5.15-16.245-14.066-31.287-26.102-42.943
				c-14.757-14.292-33.895-24.017-54.153-27.43c-22.25-3.748-44.859,0.045-66.53,5.325c-20.984,5.113-41.864,8.594-63.494,10.202
				c-20.936,1.556-42.137,3.256-61.967,10.149c-19.551,6.796-38.76,19.598-48.211,38.601c-10.263,20.635-3.448,45.794,8.686,64.038
				c9.554,14.365,21.178,28.192,21.576,46.324c0.19,8.68-0.073,17.37-0.787,26.023c-1.43,17.315,0.261,35.196,6.652,51.442
				c5.729,14.562,15.317,27.753,28.099,36.781c24.958,17.629,62.454,20.632,91.944,16.87c26.976-3.441,52.539-18.96,67.348-41.889
				c9.174-14.205,13.826-30.668,21.523-45.623c12.997-25.251,37.221-34.523,56.37-53.685
				C415.548,248.232,420.351,210.274,410.248,178.408z"/>
		</g>
		<g>
			<g>
				
					<linearGradient id="SVGID_00000073716466501195227390000009330218950548783773_" gradientUnits="userSpaceOnUse" x1="79.9047" y1="243.752" x2="79.9047" y2="96.087">
					<stop  offset="0" style="stop-color:#F2F2F2"/>
					<stop  offset="0.3231" style="stop-color:#F0F2F2"/>
					<stop  offset="0.4976" style="stop-color:#E8F0F2"/>
					<stop  offset="0.6367" style="stop-color:#DAEDF2"/>
					<stop  offset="0.7571" style="stop-color:#C7E9F2"/>
					<stop  offset="0.8654" style="stop-color:#AEE4F2"/>
					<stop  offset="0.9635" style="stop-color:#8FDEF2"/>
					<stop  offset="0.9838" style="stop-color:#88DCF2"/>
				</linearGradient>
				<path style="fill:url(#SVGID_00000073716466501195227390000009330218950548783773_);" d="M97.925,124.75
					c-0.348-1.087-0.79-2.114-1.304-3.087l2.816-2.887l-8.483-8.269l-2.888,2.96c-2.448-1.165-5.147-1.805-7.922-1.835l-1.27-3.972
					l-11.285,3.608l1.27,3.972c-1.971,1.437-3.622,3.223-4.884,5.243l-4.032-0.95l-2.72,11.531l3.932,0.928
					c0.114,1.413,0.385,2.837,0.835,4.246c0.313,0.977,0.7,1.912,1.148,2.8l-2.767,2.839l8.483,8.269l2.701-2.769
					c2.524,1.258,5.329,1.95,8.214,1.98l1.163,3.637l11.285-3.608l-1.163-3.637c2.062-1.498,3.769-3.384,5.052-5.518l3.759,0.888
					l2.72-11.532l-3.851-0.908C98.607,127.372,98.343,126.056,97.925,124.75z M82.602,138.768c-4.66,1.49-9.648-1.079-11.139-5.741
					c-1.491-4.662,1.082-9.649,5.741-11.139c4.662-1.491,9.648,1.079,11.139,5.741C89.834,132.292,87.264,137.278,82.602,138.768z"
					/>
				
					<linearGradient id="SVGID_00000180341863474217668210000013591648155635429279_" gradientUnits="userSpaceOnUse" x1="114.4711" y1="227.9946" x2="114.4711" y2="80.3297">
					<stop  offset="0" style="stop-color:#F2F2F2"/>
					<stop  offset="0.3231" style="stop-color:#F0F2F2"/>
					<stop  offset="0.4976" style="stop-color:#E8F0F2"/>
					<stop  offset="0.6367" style="stop-color:#DAEDF2"/>
					<stop  offset="0.7571" style="stop-color:#C7E9F2"/>
					<stop  offset="0.8654" style="stop-color:#AEE4F2"/>
					<stop  offset="0.9635" style="stop-color:#8FDEF2"/>
					<stop  offset="0.9838" style="stop-color:#88DCF2"/>
				</linearGradient>
				<path style="fill:url(#SVGID_00000180341863474217668210000013591648155635429279_);" d="M125.276,111.472
					c-0.208-0.652-0.474-1.268-0.782-1.851l1.688-1.731l-5.086-4.958l-1.732,1.775c-1.468-0.698-3.086-1.082-4.75-1.1l-0.762-2.382
					l-6.766,2.163l0.761,2.382c-1.182,0.862-2.171,1.932-2.928,3.144l-2.417-0.569l-1.631,6.914l2.358,0.556
					c0.068,0.847,0.231,1.701,0.501,2.546c0.187,0.586,0.42,1.146,0.688,1.678l-1.659,1.702l5.086,4.958l1.619-1.66
					c1.513,0.754,3.195,1.169,4.924,1.187l0.697,2.18l6.766-2.163l-0.697-2.181c1.236-0.898,2.26-2.029,3.029-3.308l2.254,0.532
					l1.631-6.914l-2.309-0.545C125.684,113.044,125.526,112.255,125.276,111.472z M116.09,119.883
					c-2.797,0.894-5.792-0.648-6.687-3.447c-0.895-2.799,0.649-5.793,3.447-6.687c2.799-0.895,5.792,0.648,6.687,3.447
					C120.432,115.995,118.889,118.988,116.09,119.883z"/>
				
					<linearGradient id="SVGID_00000175317222189926895350000016812491896677365919_" gradientUnits="userSpaceOnUse" x1="69.6322" y1="261.3282" x2="69.6322" y2="113.6627">
					<stop  offset="0" style="stop-color:#F2F2F2"/>
					<stop  offset="0.1677" style="stop-color:#EDF1F2"/>
					<stop  offset="0.3706" style="stop-color:#DEEEF2"/>
					<stop  offset="0.5917" style="stop-color:#C6E9F2"/>
					<stop  offset="0.8242" style="stop-color:#A4E2F2"/>
					<stop  offset="0.9838" style="stop-color:#88DCF2"/>
				</linearGradient>
				<path style="fill:url(#SVGID_00000175317222189926895350000016812491896677365919_);" d="M80.437,172.633
					c-0.208-0.652-0.474-1.268-0.782-1.851l1.688-1.731l-5.086-4.958l-1.731,1.775c-1.468-0.698-3.086-1.082-4.75-1.1l-0.762-2.382
					l-6.766,2.163l0.761,2.382c-1.182,0.862-2.171,1.932-2.928,3.144l-2.417-0.569l-1.631,6.914l2.358,0.557
					c0.068,0.847,0.231,1.701,0.501,2.546c0.187,0.586,0.42,1.146,0.688,1.678l-1.659,1.702l5.086,4.958l1.619-1.66
					c1.513,0.754,3.195,1.169,4.924,1.187l0.697,2.181l6.766-2.163l-0.697-2.181c1.236-0.898,2.26-2.029,3.029-3.308l2.254,0.532
					l1.631-6.914l-2.309-0.544C80.846,174.205,80.687,173.416,80.437,172.633z M71.251,181.044
					c-2.797,0.894-5.792-0.648-6.687-3.447c-0.895-2.799,0.649-5.793,3.447-6.687c2.799-0.895,5.792,0.648,6.687,3.447
					S74.05,180.149,71.251,181.044z"/>
			</g>
			<g>
				
					<linearGradient id="SVGID_00000051349884050605282340000007828955201740943538_" gradientUnits="userSpaceOnUse" x1="388.4402" y1="405.5703" x2="388.4402" y2="212.8997">
					<stop  offset="0" style="stop-color:#F2F2F2"/>
					<stop  offset="0.1677" style="stop-color:#EDF1F2"/>
					<stop  offset="0.3706" style="stop-color:#DEEEF2"/>
					<stop  offset="0.5917" style="stop-color:#C6E9F2"/>
					<stop  offset="0.8242" style="stop-color:#A4E2F2"/>
					<stop  offset="0.9838" style="stop-color:#88DCF2"/>
				</linearGradient>
				<path style="fill:url(#SVGID_00000051349884050605282340000007828955201740943538_);" d="M385.316,331.833
					c-0.958,0.198-1.876,0.482-2.752,0.832l-2.208-2.664l-7.824,6.488l2.263,2.732c-1.216,1.983-2.007,4.228-2.284,6.592
					l-3.504,0.723l2.055,9.955l3.504-0.723c1.047,1.812,2.421,3.382,4.031,4.642l-1.176,3.354l9.592,3.367l1.148-3.271
					c1.216,0.031,2.456-0.071,3.699-0.328c0.862-0.178,1.695-0.424,2.493-0.725l2.172,2.618l7.824-6.488l-2.117-2.555
					c1.302-2.039,2.147-4.369,2.434-6.828l3.208-0.662l-2.055-9.955l-3.208,0.662c-1.091-1.895-2.545-3.522-4.249-4.811l1.098-3.127
					l-9.592-3.367l-1.124,3.203C387.614,331.489,386.468,331.595,385.316,331.833z M395.886,346.177
					c0.849,4.111-1.796,8.134-5.908,8.983c-4.113,0.849-8.134-1.798-8.983-5.908c-0.849-4.113,1.796-8.134,5.908-8.983
					C391.016,339.42,395.037,342.065,395.886,346.177z"/>
				
					<linearGradient id="SVGID_00000100358051472939527600000018395804264617967547_" gradientUnits="userSpaceOnUse" x1="417.3494" y1="405.5703" x2="417.3494" y2="212.899">
					<stop  offset="0" style="stop-color:#F2F2F2"/>
					<stop  offset="0.1677" style="stop-color:#EDF1F2"/>
					<stop  offset="0.3706" style="stop-color:#DEEEF2"/>
					<stop  offset="0.5917" style="stop-color:#C6E9F2"/>
					<stop  offset="0.8242" style="stop-color:#A4E2F2"/>
					<stop  offset="0.9838" style="stop-color:#88DCF2"/>
				</linearGradient>
				<path style="fill:url(#SVGID_00000100358051472939527600000018395804264617967547_);" d="M413.07,282.854
					c-1.313,0.271-2.569,0.66-3.77,1.14l-3.024-3.649l-10.716,8.886l3.1,3.742c-1.665,2.716-2.749,5.791-3.128,9.029l-4.8,0.991
					l2.815,13.635l4.8-0.991c1.434,2.482,3.316,4.632,5.521,6.358l-1.611,4.593l13.137,4.611l1.573-4.48
					c1.666,0.042,3.363-0.097,5.066-0.449c1.181-0.244,2.321-0.581,3.414-0.993l2.974,3.586l10.716-8.886l-2.9-3.5
					c1.783-2.793,2.94-5.985,3.333-9.352l4.394-0.907l-2.815-13.635l-4.394,0.907c-1.495-2.595-3.486-4.825-5.82-6.589l1.504-4.283
					l-13.137-4.611l-1.54,4.388C416.218,282.383,414.648,282.529,413.07,282.854z M427.547,302.502
					c1.162,5.63-2.46,11.14-8.092,12.303c-5.633,1.163-11.141-2.462-12.303-8.092c-1.163-5.633,2.46-11.14,8.092-12.303
					C420.877,293.246,426.384,296.869,427.547,302.502z"/>
				
					<linearGradient id="SVGID_00000135668970125725165630000000388285785751192237_" gradientUnits="userSpaceOnUse" x1="373.1262" y1="405.5701" x2="373.1262" y2="212.8994">
					<stop  offset="0" style="stop-color:#F2F2F2"/>
					<stop  offset="0.1677" style="stop-color:#EDF1F2"/>
					<stop  offset="0.3706" style="stop-color:#DEEEF2"/>
					<stop  offset="0.5917" style="stop-color:#C6E9F2"/>
					<stop  offset="0.8242" style="stop-color:#A4E2F2"/>
					<stop  offset="0.9838" style="stop-color:#88DCF2"/>
				</linearGradient>
				<path style="fill:url(#SVGID_00000135668970125725165630000000388285785751192237_);" d="M370.943,303.467
					c-0.67,0.138-1.311,0.337-1.923,0.581l-1.543-1.862l-5.467,4.534l1.582,1.909c-0.85,1.386-1.402,2.954-1.596,4.607l-2.449,0.506
					l1.436,6.957l2.449-0.505c0.732,1.266,1.692,2.363,2.817,3.244l-0.822,2.344l6.703,2.353l0.803-2.286
					c0.85,0.022,1.716-0.05,2.585-0.229c0.602-0.124,1.184-0.296,1.742-0.507l1.517,1.829l5.467-4.534l-1.479-1.785
					c0.91-1.425,1.5-3.053,1.701-4.771l2.242-0.463l-1.436-6.957l-2.242,0.463c-0.762-1.324-1.779-2.461-2.969-3.362l0.767-2.185
					l-6.703-2.352l-0.786,2.238C372.549,303.226,371.748,303.301,370.943,303.467z M378.336,313.49
					c0.594,2.876-1.257,5.691-4.134,6.285c-2.878,0.594-5.692-1.258-6.285-4.134c-0.594-2.878,1.257-5.691,4.134-6.285
					C374.928,308.761,377.742,310.612,378.336,313.49z"/>
			</g>
		</g>
		<g>
			<g id="XMLID_2_">
				
					<linearGradient id="SVGID_00000101786440867428298110000017844551367163230617_" gradientUnits="userSpaceOnUse" x1="59.3113" y1="153.4496" x2="59.3113" y2="14.2483">
					<stop  offset="0" style="stop-color:#F2F2F2"/>
					<stop  offset="0.1677" style="stop-color:#EDF1F2"/>
					<stop  offset="0.3706" style="stop-color:#DEEEF2"/>
					<stop  offset="0.5917" style="stop-color:#C6E9F2"/>
					<stop  offset="0.8242" style="stop-color:#A4E2F2"/>
					<stop  offset="0.9838" style="stop-color:#88DCF2"/>
				</linearGradient>
				<path style="fill:url(#SVGID_00000101786440867428298110000017844551367163230617_);" d="M60.319,289.598
					c0.816,1.688,2.116,3.097,3.722,4.043c0.637,0.375,0.607,1.338-0.053,1.672c-1.669,0.843-3.055,2.167-3.977,3.791
					c-0.381,0.671-1.363,0.641-1.699-0.054c-0.817-1.687-2.12-3.095-3.729-4.042c-0.639-0.376-0.609-1.34,0.053-1.673
					c1.672-0.842,3.06-2.168,3.984-3.793C59.001,288.871,59.983,288.903,60.319,289.598z"/>
			</g>
			<g id="XMLID_4_">
				
					<linearGradient id="SVGID_00000053516727555327534120000011474744276324213438_" gradientUnits="userSpaceOnUse" x1="45.6633" y1="153.4487" x2="45.6633" y2="14.2474">
					<stop  offset="0" style="stop-color:#F2F2F2"/>
					<stop  offset="0.1677" style="stop-color:#EDF1F2"/>
					<stop  offset="0.3706" style="stop-color:#DEEEF2"/>
					<stop  offset="0.5917" style="stop-color:#C6E9F2"/>
					<stop  offset="0.8242" style="stop-color:#A4E2F2"/>
					<stop  offset="0.9838" style="stop-color:#88DCF2"/>
				</linearGradient>
				<path style="fill:url(#SVGID_00000053516727555327534120000011474744276324213438_);" d="M46.671,268.885
					c0.816,1.688,2.116,3.097,3.722,4.043c0.637,0.375,0.607,1.338-0.053,1.672c-1.669,0.843-3.055,2.167-3.977,3.791
					c-0.381,0.671-1.363,0.641-1.699-0.054c-0.817-1.687-2.12-3.095-3.729-4.042c-0.639-0.376-0.609-1.34,0.053-1.673
					c1.672-0.842,3.06-2.168,3.984-3.793C45.353,268.158,46.335,268.19,46.671,268.885z"/>
			</g>
			<g id="XMLID_5_">
				
					<linearGradient id="SVGID_00000084515649220833831160000004232820605988265389_" gradientUnits="userSpaceOnUse" x1="50.8533" y1="153.4491" x2="50.8533" y2="14.2476">
					<stop  offset="0" style="stop-color:#F2F2F2"/>
					<stop  offset="0.1677" style="stop-color:#EDF1F2"/>
					<stop  offset="0.3706" style="stop-color:#DEEEF2"/>
					<stop  offset="0.5917" style="stop-color:#C6E9F2"/>
					<stop  offset="0.8242" style="stop-color:#A4E2F2"/>
					<stop  offset="0.9838" style="stop-color:#88DCF2"/>
				</linearGradient>
				<path style="fill:url(#SVGID_00000084515649220833831160000004232820605988265389_);" d="M51.861,246.391
					c0.816,1.688,2.116,3.097,3.722,4.043c0.637,0.375,0.607,1.338-0.053,1.672c-1.669,0.843-3.055,2.167-3.977,3.791
					c-0.381,0.671-1.363,0.641-1.699-0.054c-0.817-1.687-2.12-3.095-3.729-4.042c-0.639-0.376-0.609-1.34,0.053-1.673
					c1.672-0.842,3.06-2.168,3.984-3.792C50.543,245.665,51.525,245.696,51.861,246.391z"/>
			</g>
			<g id="XMLID_8_">
				
					<linearGradient id="SVGID_00000139994663815285726190000002034427334670525100_" gradientUnits="userSpaceOnUse" x1="447.5088" y1="153.4492" x2="447.5088" y2="14.2476">
					<stop  offset="0" style="stop-color:#F2F2F2"/>
					<stop  offset="0.1677" style="stop-color:#EDF1F2"/>
					<stop  offset="0.3706" style="stop-color:#DEEEF2"/>
					<stop  offset="0.5917" style="stop-color:#C6E9F2"/>
					<stop  offset="0.8242" style="stop-color:#A4E2F2"/>
					<stop  offset="0.9838" style="stop-color:#88DCF2"/>
				</linearGradient>
				<path style="fill:url(#SVGID_00000139994663815285726190000002034427334670525100_);" d="M448.516,215.429
					c0.816,1.688,2.116,3.097,3.722,4.043c0.637,0.376,0.607,1.338-0.053,1.672c-1.669,0.843-3.055,2.167-3.977,3.791
					c-0.381,0.671-1.363,0.641-1.699-0.054c-0.817-1.687-2.12-3.095-3.729-4.042c-0.638-0.376-0.609-1.34,0.053-1.673
					c1.672-0.842,3.06-2.168,3.984-3.792C447.198,214.703,448.18,214.734,448.516,215.429z"/>
			</g>
			<g id="XMLID_7_">
				
					<linearGradient id="SVGID_00000085935350459518832020000000962835477728032694_" gradientUnits="userSpaceOnUse" x1="425.7642" y1="153.4492" x2="425.7642" y2="14.2474">
					<stop  offset="0" style="stop-color:#F2F2F2"/>
					<stop  offset="0.1677" style="stop-color:#EDF1F2"/>
					<stop  offset="0.3706" style="stop-color:#DEEEF2"/>
					<stop  offset="0.5917" style="stop-color:#C6E9F2"/>
					<stop  offset="0.8242" style="stop-color:#A4E2F2"/>
					<stop  offset="0.9838" style="stop-color:#88DCF2"/>
				</linearGradient>
				<path style="fill:url(#SVGID_00000085935350459518832020000000962835477728032694_);" d="M426.772,234.773
					c0.816,1.688,2.116,3.097,3.722,4.043c0.637,0.375,0.607,1.338-0.053,1.672c-1.669,0.843-3.055,2.167-3.977,3.791
					c-0.381,0.671-1.363,0.64-1.699-0.054c-0.817-1.687-2.12-3.095-3.729-4.042c-0.638-0.376-0.609-1.339,0.053-1.673
					c1.672-0.842,3.06-2.168,3.984-3.792C425.454,234.046,426.436,234.078,426.772,234.773z"/>
			</g>
			<g id="XMLID_6_">
				
					<linearGradient id="SVGID_00000034054997058960541370000002889126648598609585_" gradientUnits="userSpaceOnUse" x1="430.9542" y1="153.4492" x2="430.9542" y2="14.2474">
					<stop  offset="0" style="stop-color:#F2F2F2"/>
					<stop  offset="0.1677" style="stop-color:#EDF1F2"/>
					<stop  offset="0.3706" style="stop-color:#DEEEF2"/>
					<stop  offset="0.5917" style="stop-color:#C6E9F2"/>
					<stop  offset="0.8242" style="stop-color:#A4E2F2"/>
					<stop  offset="0.9838" style="stop-color:#88DCF2"/>
				</linearGradient>
				<path style="fill:url(#SVGID_00000034054997058960541370000002889126648598609585_);" d="M431.962,194.485
					c0.815,1.688,2.116,3.097,3.722,4.043c0.637,0.375,0.608,1.338-0.053,1.672c-1.669,0.843-3.055,2.167-3.977,3.791
					c-0.381,0.671-1.363,0.64-1.699-0.054c-0.817-1.687-2.12-3.095-3.729-4.042c-0.639-0.376-0.609-1.34,0.053-1.673
					c1.672-0.842,3.06-2.168,3.984-3.792C430.644,193.759,431.626,193.79,431.962,194.485z"/>
			</g>
		</g>
	</g>
</g>
<g id="OBJECTS">
	<g>
		<g>
			<g>
				
					<linearGradient id="SVGID_00000006686275114287188740000014183726460522390931_" gradientUnits="userSpaceOnUse" x1="287.1973" y1="104.0581" x2="339.5564" y2="104.0581">
					<stop  offset="0" style="stop-color:#1A8BE6"/>
					<stop  offset="0.0038" style="stop-color:#1B8CE6"/>
					<stop  offset="0.2116" style="stop-color:#42A8EA"/>
					<stop  offset="0.4169" style="stop-color:#60BFEE"/>
					<stop  offset="0.6167" style="stop-color:#76CFF0"/>
					<stop  offset="0.8086" style="stop-color:#84D9F2"/>
					<stop  offset="0.9838" style="stop-color:#88DCF2"/>
				</linearGradient>
				<path style="fill:url(#SVGID_00000006686275114287188740000014183726460522390931_);" d="M319.497,127.822
					c-2.601,6.653-12.747,17.473-20.514,13.758c-3.837-1.835-7.878-6.11-9.178-10.22c-0.455-1.438-1.055-4.818-0.056-6.171
					c1.161-1.571,3.574,0.051,5.134,0.482c2.669,0.736,5.484,0.942,8.213,0.43c2.501-0.47,7.063-1.936,8.199-4.479
					c-1.007-1.054-2.702-0.061-3.879,0.218c-1.332,0.315-2.673,0.274-4.029,0.477c-2.379,0.356-4.875,0.591-7.293,0.059
					c-4.661-1.027-8.183-5.377-8.765-10.011c-0.284-2.258-0.223-6.018,1.284-7.863c2.985,1.328,5.791,2.875,8.82,4.06
					c2.347,0.918,7.513,2.883,9.9,0.996c3.017-2.385-6.619-4.147-8.033-4.653c-3.347-1.197-8.281-3.215-8.866-7.134
					c-0.49-3.277,1.764-7.655,3.071-10.574c0.653-1.46,1.4-3.121,2.404-4.348c1.442-1.763,2.423-0.623,3.414,1.125
					c1.955,3.448,2.132,8.903,6.526,10.64c2.94,1.162,2.775-1.754,1.504-3.605c-1.037-1.51-2.393-2.778-3.648-4.094
					c-3.264-3.42-3.188-7.647-0.758-11.518c2.045-3.259,5.142-6.954,7.962-9.615c-2.4,4.571,4.204,6.974,6.408,9.567
					c2.651,3.118,2.29,6.57,1.544,10.279c2.101-3.568,2.707-6.189,2.73-10.204c1.837,2.283,3.612,4.678,5.461,6.982
					c1.857,2.313,5.035,4.924,4.182,8.286c-0.776,3.056-3.693,5.444-6.458,6.52c-0.907,0.353-3.581,0.393-3.9,1.041
					c-1.003,2.039,2.201,2.147,3.265,2.002c1.81-0.247,3.405-1.09,4.682-2.423c0.575-0.601,1.698-3.105,2.486-3.116
					c1.627-0.022,4.132,9.281,4.349,10.435c0.506,2.694,0.948,6.892-2.29,7.839c-2.53,0.74-6.218-0.546-8.508,0.483
					c-3.783,1.7,3.599,3.939,5.209,3.89c3.433-0.103,5.291-1.493,7.354-4.021c1.446,1.466,1.401,5.782,1.606,7.748
					c0.23,2.205,0.701,4.821,0.462,7c-0.699,6.363-9.856,5.626-14.008,3.73c-2.077-0.948-4.577-1.931-5.603-3.995"/>
			</g>
			<g>
				
					<linearGradient id="SVGID_00000017475320688981921170000010865606724277233558_" gradientUnits="userSpaceOnUse" x1="328.69" y1="163.7422" x2="410.4591" y2="163.7422" gradientTransform="matrix(0.9408 0.3388 -0.3388 0.9408 76.626 -113.528)">
					<stop  offset="0" style="stop-color:#1A8BE6"/>
					<stop  offset="0.0038" style="stop-color:#1B8CE6"/>
					<stop  offset="0.2116" style="stop-color:#42A8EA"/>
					<stop  offset="0.4169" style="stop-color:#60BFEE"/>
					<stop  offset="0.6167" style="stop-color:#76CFF0"/>
					<stop  offset="0.8086" style="stop-color:#84D9F2"/>
					<stop  offset="0.9838" style="stop-color:#88DCF2"/>
				</linearGradient>
				<path style="fill:url(#SVGID_00000017475320688981921170000010865606724277233558_);" d="M344.876,164.806
					c-6.316-4.265-15.437-17.125-10.117-23.972c2.629-3.383,7.798-6.361,12.266-6.635c1.563-0.096,5.146,0.147,6.339,1.485
					c1.385,1.554-0.748,3.566-1.493,5.019c-1.274,2.488-2.033,5.255-2.039,8.114c-0.005,2.621,0.611,7.554,2.998,9.327
					c1.277-0.745,0.588-2.69,0.531-3.938c-0.064-1.412,0.239-2.744,0.295-4.153c0.098-2.47,0.343-5.028,1.359-7.315
					c1.96-4.409,7.106-6.848,11.97-6.274c2.37,0.28,6.214,1.28,7.813,3.249c-1.942,2.657-4.075,5.079-5.879,7.815
					c-1.398,2.12-4.418,6.802-2.948,9.662c1.859,3.616,5.541-5.59,6.335-6.88c1.879-3.052,4.908-7.487,9.041-7.094
					c3.455,0.328,7.506,3.678,10.245,5.715c1.37,1.019,2.928,2.181,3.991,3.492c1.527,1.884,0.168,2.582-1.817,3.137
					c-3.916,1.096-9.544-0.089-12.18,3.875c-1.764,2.653,1.259,3.216,3.404,2.406c1.749-0.661,3.314-1.701,4.908-2.63
					c4.142-2.413,8.462-1.281,11.959,2.118c2.944,2.861,6.13,6.884,8.31,10.373c-4.221-3.545-7.97,2.467-11.057,4.025
					c-3.713,1.875-7.183,0.652-10.841-1.022c3.25,2.994,5.82,4.256,9.932,5.282c-2.698,1.269-5.5,2.448-8.222,3.723
					c-2.734,1.281-6.029,3.811-9.31,2.117c-2.983-1.54-4.864-5.056-5.429-8.094c-0.185-0.997,0.293-3.683-0.309-4.164
					c-1.895-1.514-2.63,1.667-2.688,2.769c-0.099,1.873,0.456,3.681,1.574,5.292c0.504,0.726,2.854,2.476,2.711,3.267
					c-0.294,1.634-10.321,1.818-11.547,1.747c-2.861-0.167-7.252-0.772-7.593-4.25c-0.266-2.717,1.77-6.089,1.16-8.638
					c-1.008-4.211-4.739,2.619-5.003,4.243c-0.562,3.462,0.502,5.669,2.692,8.367c-1.784,1.082-6.201-0.042-8.258-0.327
					c-2.306-0.321-5.08-0.502-7.268-1.286c-6.389-2.289-3.852-11.272-1.1-14.954c1.377-1.842,2.871-4.099,5.187-4.611"/>
			</g>
			<g>
				
					<linearGradient id="SVGID_00000001642095334989928470000002163050801938719116_" gradientUnits="userSpaceOnUse" x1="311.0915" y1="120.223" x2="381.5248" y2="120.223">
					<stop  offset="0" style="stop-color:#1A8BE6"/>
					<stop  offset="0.0038" style="stop-color:#1B8CE6"/>
					<stop  offset="0.2116" style="stop-color:#42A8EA"/>
					<stop  offset="0.4169" style="stop-color:#60BFEE"/>
					<stop  offset="0.6167" style="stop-color:#76CFF0"/>
					<stop  offset="0.8086" style="stop-color:#84D9F2"/>
					<stop  offset="0.9838" style="stop-color:#88DCF2"/>
				</linearGradient>
				<path style="fill:url(#SVGID_00000001642095334989928470000002163050801938719116_);" d="M334.749,135.063
					c-4.278,1.299-9.734,2.998-13.916,4.527c-5.45,1.993-8.247,0.122-9.366-5.481c-1.382-6.917,1.281-15.801,4.187-22.111
					c1.028-2.231,1.418-2.516,3.734-1.025c1.71,1.101,3.128,2.374,4.934,3.362c3.488,1.908,6.662,3.269,10.671,3.152
					c6.321-0.185,1.184-4.018-1.865-4.791c-3.551-0.901-7.107-2.296-10.232-4.35c-5.367-3.527,14.297-15.606,19.065-16.121
					c0.184,3.01,4.89,9.536,8.38,9.629c3.073,0.082,1.096-2.089-0.138-3.343c-1.422-1.445-2.874-2.645-3.585-4.539
					c-2.91-7.745,17.437-6.212,21.525-5.748c5.378,0.61,7.556-1.378,10.505-5.421c1.906,5.55,4.625,13.599,1.342,18.937
					c-1.591,2.587-4.822,3.537-7.455,4.647c-1.813,0.764-7.085,3.734-2.084,3.609c3.493-0.087,6.428-2.77,10.003-2.767
					c0.781,2.465,0.749,9.167-1.253,11.076c-2.397,2.285-8.213-0.42-11.169,0.057c1.961,4.064,7.625,2.566,11.117,3.073
					c0.185,5.244-1.477,14.514-5.806,18.298c-6.311,5.518-10.83-6.577-11.424-8.817c-0.438-1.65-1.374-4.42-2.223-1.342
					c-0.744,2.7,2.238,8.814,3.725,11.137c0.726,1.135,3.601,3.169,3.61,4.54c0.011,1.564-19.925,14.129-27.195,12.186
					C332.285,155.419,332.036,140.807,334.749,135.063z"/>
			</g>
		</g>
		<g>
			<g>
				
					<linearGradient id="SVGID_00000169526409706250164110000001894817839338973865_" gradientUnits="userSpaceOnUse" x1="136.7979" y1="305.4381" x2="189.157" y2="305.4381" gradientTransform="matrix(0 1 1 0 -177.3277 177.3277)">
					<stop  offset="0" style="stop-color:#1A8BE6"/>
					<stop  offset="0.0038" style="stop-color:#1B8CE6"/>
					<stop  offset="0.2116" style="stop-color:#42A8EA"/>
					<stop  offset="0.4169" style="stop-color:#60BFEE"/>
					<stop  offset="0.6167" style="stop-color:#76CFF0"/>
					<stop  offset="0.8086" style="stop-color:#84D9F2"/>
					<stop  offset="0.9838" style="stop-color:#88DCF2"/>
				</linearGradient>
				<path style="fill:url(#SVGID_00000169526409706250164110000001894817839338973865_);" d="M151.874,346.426
					c6.653-2.601,17.473-12.747,13.758-20.514c-1.836-3.837-6.11-7.878-10.22-9.178c-1.438-0.455-4.818-1.055-6.171-0.056
					c-1.571,1.161,0.051,3.574,0.482,5.134c0.736,2.669,0.942,5.484,0.43,8.213c-0.47,2.501-1.936,7.063-4.479,8.199
					c-1.054-1.007-0.061-2.702,0.218-3.879c0.315-1.332,0.274-2.673,0.477-4.029c0.356-2.379,0.591-4.875,0.059-7.293
					c-1.027-4.661-5.377-8.183-10.011-8.765c-2.258-0.284-6.018-0.223-7.863,1.284c1.328,2.985,2.875,5.791,4.06,8.82
					c0.918,2.347,2.883,7.513,0.996,9.9c-2.386,3.017-4.148-6.619-4.653-8.033c-1.197-3.347-3.215-8.281-7.134-8.867
					c-3.277-0.49-7.655,1.764-10.574,3.071c-1.459,0.653-3.121,1.4-4.348,2.404c-1.763,1.442-0.623,2.423,1.125,3.414
					c3.448,1.955,8.903,2.132,10.64,6.526c1.163,2.94-1.754,2.775-3.605,1.504c-1.509-1.037-2.778-2.393-4.094-3.648
					c-3.42-3.263-7.647-3.188-11.518-0.758c-3.259,2.045-6.954,5.142-9.615,7.963c4.571-2.4,6.974,4.204,9.567,6.408
					c3.118,2.651,6.57,2.29,10.279,1.544c-3.568,2.101-6.189,2.707-10.204,2.73c2.283,1.837,4.678,3.612,6.982,5.462
					c2.313,1.857,4.924,5.035,8.286,4.182c3.056-0.776,5.444-3.693,6.52-6.458c0.353-0.907,0.393-3.581,1.041-3.9
					c2.038-1.003,2.147,2.201,2.002,3.265c-0.247,1.81-1.09,3.405-2.423,4.682c-0.601,0.575-3.105,1.698-3.116,2.486
					c-0.022,1.627,9.281,4.132,10.435,4.349c2.694,0.506,6.892,0.948,7.839-2.29c0.74-2.53-0.546-6.218,0.483-8.508
					c1.7-3.783,3.939,3.599,3.89,5.209c-0.103,3.433-1.493,5.291-4.021,7.354c1.466,1.446,5.782,1.401,7.748,1.606
					c2.205,0.23,4.821,0.701,7,0.462c6.363-0.699,5.626-9.856,3.73-14.008c-0.948-2.077-1.931-4.577-3.995-5.603"/>
			</g>
			<g>
				
					<linearGradient id="SVGID_00000109751755400661648060000007466616830765694136_" gradientUnits="userSpaceOnUse" x1="255.5638" y1="406.9974" x2="337.3329" y2="406.9974" gradientTransform="matrix(0.507 0.8619 0.8619 -0.507 -307.7209 345.5625)">
					<stop  offset="0" style="stop-color:#1A8BE6"/>
					<stop  offset="0.0038" style="stop-color:#1B8CE6"/>
					<stop  offset="0.2116" style="stop-color:#42A8EA"/>
					<stop  offset="0.4169" style="stop-color:#60BFEE"/>
					<stop  offset="0.6167" style="stop-color:#76CFF0"/>
					<stop  offset="0.8086" style="stop-color:#84D9F2"/>
					<stop  offset="0.9838" style="stop-color:#88DCF2"/>
				</linearGradient>
				<path style="fill:url(#SVGID_00000109751755400661648060000007466616830765694136_);" d="M188.022,371.332
					c-5.36-5.418-19.685-12.003-25.43-5.508c-2.839,3.209-4.809,8.841-4.251,13.281c0.195,1.554,1.097,5.03,2.632,5.955
					c1.784,1.074,3.366-1.395,4.657-2.395c2.209-1.713,4.788-2.97,7.597-3.504c2.575-0.49,7.537-0.797,9.721,1.221
					c-0.496,1.393-2.535,1.076-3.772,1.251c-1.399,0.198-2.653,0.743-4.026,1.058c-2.409,0.553-4.878,1.267-6.937,2.689
					c-3.971,2.741-5.416,8.25-3.951,12.924c0.714,2.278,2.407,5.871,4.639,7.077c2.252-2.4,4.238-4.944,6.593-7.224
					c1.825-1.766,5.867-5.6,8.95-4.684c3.898,1.158-4.469,6.479-5.589,7.498c-2.652,2.411-6.45,6.208-5.299,10.197
					c0.962,3.335,5.003,6.697,7.512,9.012c1.254,1.158,2.685,2.474,4.17,3.276c2.134,1.152,2.568-0.313,2.747-2.366
					c0.353-4.052-1.853-9.363,1.555-12.687c2.281-2.224,3.394,0.642,2.994,2.9c-0.326,1.841-1.059,3.572-1.676,5.31
					c-1.605,4.517,0.306,8.553,4.293,11.361c3.357,2.364,7.899,4.751,11.731,6.248c-4.264-3.492,0.95-8.288,1.911-11.611
					c1.156-3.996-0.688-7.179-3.009-10.465c3.543,2.64,5.259,4.932,7.028,8.784c0.748-2.887,1.388-5.858,2.138-8.769
					c0.754-2.923,2.63-6.629,0.358-9.541c-2.065-2.646-5.869-3.845-8.958-3.838c-1.014,0.002-3.565,0.97-4.149,0.467
					c-1.838-1.583,1.152-2.893,2.223-3.154c1.823-0.444,3.702-0.233,5.492,0.568c0.807,0.361,2.961,2.346,3.712,2.06
					c1.552-0.591-0.122-10.479-0.419-11.671c-0.693-2.781-2.1-6.984-5.581-6.676c-2.72,0.241-5.656,2.865-8.274,2.738
					c-4.325-0.211,1.697-5.142,3.244-5.701c3.299-1.193,5.664-0.556,8.72,1.098c0.733-1.954-1.188-6.087-1.849-8.055
					c-0.742-2.206-1.433-4.899-2.609-6.905c-3.432-5.855-11.79-1.701-14.9,1.685c-1.556,1.694-3.497,3.58-3.572,5.95"/>
			</g>
			<g>
				
					<linearGradient id="SVGID_00000181063447706107633220000004415731564351023033_" gradientUnits="userSpaceOnUse" x1="160.692" y1="321.6029" x2="231.1253" y2="321.6029" gradientTransform="matrix(0 1 1 0 -177.3277 177.3277)">
					<stop  offset="0" style="stop-color:#1A8BE6"/>
					<stop  offset="0.0038" style="stop-color:#1B8CE6"/>
					<stop  offset="0.2116" style="stop-color:#42A8EA"/>
					<stop  offset="0.4169" style="stop-color:#60BFEE"/>
					<stop  offset="0.6167" style="stop-color:#76CFF0"/>
					<stop  offset="0.8086" style="stop-color:#84D9F2"/>
					<stop  offset="0.9838" style="stop-color:#88DCF2"/>
				</linearGradient>
				<path style="fill:url(#SVGID_00000181063447706107633220000004415731564351023033_);" d="M159.115,361.678
					c1.299-4.278,2.998-9.734,4.528-13.916c1.993-5.45,0.121-8.247-5.481-9.366c-6.917-1.382-15.801,1.281-22.111,4.187
					c-2.231,1.028-2.516,1.418-1.025,3.734c1.101,1.71,2.374,3.128,3.362,4.934c1.908,3.488,3.269,6.662,3.152,10.671
					c-0.185,6.321-4.018,1.184-4.791-1.865c-0.901-3.551-2.296-7.107-4.35-10.232c-3.527-5.367-15.606,14.297-16.121,19.065
					c3.01,0.184,9.536,4.89,9.629,8.38c0.081,3.073-2.089,1.096-3.343-0.138c-1.444-1.422-2.645-2.874-4.539-3.585
					c-7.745-2.91-6.212,17.437-5.748,21.525c0.61,5.378-1.378,7.556-5.421,10.505c5.55,1.906,13.599,4.625,18.937,1.342
					c2.587-1.591,3.537-4.822,4.647-7.455c0.764-1.813,3.734-7.086,3.609-2.084c-0.087,3.493-2.77,6.428-2.767,10.003
					c2.465,0.781,9.167,0.749,11.076-1.253c2.285-2.397-0.42-8.213,0.057-11.169c4.064,1.961,2.565,7.625,3.073,11.117
					c5.244,0.185,14.514-1.477,18.298-5.805c5.518-6.311-6.577-10.83-8.817-11.424c-1.65-0.438-4.421-1.375-1.342-2.223
					c2.7-0.744,8.814,2.238,11.137,3.725c1.135,0.726,3.169,3.6,4.54,3.61c1.564,0.011,14.129-19.925,12.186-27.195
					C179.471,359.214,164.86,358.964,159.115,361.678z"/>
			</g>
		</g>
	</g>
	<g>
		<path style="fill:#9A575E;" d="M198.297,91.789c-2.744,16.757-7.358,19.562-14.493,3.636c0.901-0.343,1.595-0.617,1.715-0.695
			c0.66-0.566,0.935-1.295,0.918-2.418c-0.009-0.017-0.009-0.017-0.009-0.017c-0.017-0.172-0.034-0.334-0.06-0.489
			c-0.189-1.269-0.583-2.247-1.209-2.924l6.415-3.285l1.261,3.653c0.111,0.352,0.223,0.703,0.326,1.055
			c0.086,0.309,0.171,0.618,0.24,0.926l0.008,0.009c0,0.009,0,0.009,0,0.017c0.154,0.575,0.738,0.952,1.338,0.926
			C195.81,92.141,197.045,91.969,198.297,91.789z"/>
		
			<linearGradient id="SVGID_00000138531906123401005700000009039755460469179062_" gradientUnits="userSpaceOnUse" x1="186.3958" y1="66.4925" x2="191.8503" y2="148.9168">
			<stop  offset="0" style="stop-color:#E692C0"/>
			<stop  offset="0.1984" style="stop-color:#E58EBD"/>
			<stop  offset="0.4157" style="stop-color:#E280B6"/>
			<stop  offset="0.642" style="stop-color:#DD6AAA"/>
			<stop  offset="0.873" style="stop-color:#D64C98"/>
			<stop  offset="1" style="stop-color:#D1388D"/>
		</linearGradient>
		<path style="fill:url(#SVGID_00000138531906123401005700000009039755460469179062_);" d="M214.085,126.727
			c-0.06,14.682-5.008,30.71-8.37,45.435c-14.605,1.749-26.079-0.643-37.005-10.677c3.842-9.339,12.546-17.032,13.859-27.331
			s-4.391-19.682-7.109-28.995c-1.166-3.988,0.729-5.952,3.816-7.83c0.772-0.472,2.959-1.304,4.528-1.904
			c7.135,15.925,11.749,13.121,14.493-3.636c1.801-0.249,3.619-0.48,4.957-0.292c5.137,0.72,7.59,1.432,8.387,7.873
			C212.678,107.749,214.128,116.685,214.085,126.727z"/>
		<g>
			<path style="fill:#A4686E;" d="M197.934,76.241c0.02-2.021-1.059-4.446-2.692-4.234c-0.487,0.063-0.993,0.359-1.456,0.792
				c-2.396-5.212-7.786-10.425-11.866-9.895c-5.339,0.693-9.312,4.267-7.144,18.011c0.858,5.438,5.736,10.301,11.077,10.078
				c4.014-0.167,7.615-5.311,8.78-10.16C196.235,79.972,197.91,78.804,197.934,76.241z"/>
			<g>
				<g>
					<g>
						<path style="fill:#3A1081;" d="M180.671,82.777c-0.023,0.008-0.047,0.013-0.072,0.015c-0.629,0.041-1.488,0.031-1.688-0.53
							c-0.277-0.779,1.152-1.896,1.779-2.34c0.134-0.092,0.315-0.062,0.41,0.07c0.093,0.132,0.062,0.315-0.07,0.409
							c-0.885,0.627-1.647,1.436-1.565,1.664c0.001,0.002,0.117,0.204,1.094,0.139c0.162-0.01,0.302,0.112,0.313,0.274
							C180.881,82.615,180.796,82.736,180.671,82.777z"/>
					</g>
				</g>
				<g>
					<g>
						<path style="fill:#3A1081;" d="M182.018,86.109c-0.324,0.073-0.532,0.094-0.541,0.094c-0.183,0.016-0.345-0.119-0.363-0.302
							c-0.015-0.184,0.102-0.347,0.302-0.364c0.168-0.013,4.155-0.434,4.277-4.43c0.006-0.184,0.155-0.33,0.345-0.324
							c0.184,0.006,0.329,0.16,0.323,0.344C186.25,84.777,183.266,85.828,182.018,86.109z"/>
					</g>
				</g>
				<path style="fill:#3A1081;" d="M185.368,76.942"/>
				<g>
					<g>
						<path style="fill:#3A1081;" d="M187.121,74.336c-0.12,0.04-0.258,0.009-0.35-0.089c-1.448-1.552-2.914-0.353-2.976-0.302
							c-0.141,0.118-0.35,0.1-0.47-0.04c-0.118-0.142-0.1-0.353,0.042-0.471c0.69-0.58,2.394-1.25,3.894,0.357
							c0.126,0.135,0.118,0.346-0.017,0.472C187.207,74.297,187.166,74.321,187.121,74.336z"/>
					</g>
				</g>
				<g>
					<g>
						<path style="fill:#3A1081;" d="M177.992,75.207c-0.055,0.091-0.159,0.148-0.271,0.135c-1.772-0.19-2.045,1.376-2.056,1.443
							c-0.025,0.152-0.168,0.256-0.321,0.233c-0.153-0.025-0.257-0.169-0.232-0.322c0.12-0.747,0.835-2.108,2.67-1.911
							c0.154,0.017,0.266,0.155,0.248,0.309C178.025,75.136,178.012,75.173,177.992,75.207z"/>
					</g>
				</g>
				<path style="fill:#3A1081;" d="M185.58,76.683c0.152,0.546-0.128,1.101-0.626,1.239c-0.498,0.138-1.024-0.192-1.176-0.739
					c-0.152-0.546,0.129-1.101,0.626-1.239C184.903,75.806,185.429,76.136,185.58,76.683z"/>
				<path style="fill:#3A1081;" d="M178.716,78.685c0.152,0.546-0.128,1.101-0.626,1.239c-0.498,0.138-1.024-0.192-1.176-0.739
					c-0.152-0.546,0.129-1.101,0.626-1.239C178.038,77.808,178.564,78.139,178.716,78.685z"/>
			</g>
		</g>
		<g>
			<path style="fill:#3A1081;" d="M181.232,60.857c-3.295,1.472-8.852,5.425-8.601,5.771c-5.913-1.672-11.949,11.93-3.685,9.005
				c0.795,6.06,7.088,4.933,5.369-2.107c2.236-0.335,2.798-2.268,3.636-4.29c1.708,2.226,8.195,2.068,10.954,1.523
				c0.477,2.089,2.402,2.628,4.188,1.584c-1.545,2.805-2.318,5.114-0.504,7.874c1.932-1.746,2.33-8.326,2.4-10.987
				C195.111,64.602,188.616,57.559,181.232,60.857z"/>
		</g>
	</g>
	<g>
		
			<linearGradient id="SVGID_00000029013577098726962390000011358562135592189580_" gradientUnits="userSpaceOnUse" x1="249.9997" y1="331.631" x2="249.9997" y2="117.9657">
			<stop  offset="0" style="stop-color:#1A8BE6"/>
			<stop  offset="0.0038" style="stop-color:#1B8CE6"/>
			<stop  offset="0.2116" style="stop-color:#42A8EA"/>
			<stop  offset="0.4169" style="stop-color:#60BFEE"/>
			<stop  offset="0.6167" style="stop-color:#76CFF0"/>
			<stop  offset="0.8086" style="stop-color:#84D9F2"/>
			<stop  offset="0.9838" style="stop-color:#88DCF2"/>
		</linearGradient>
		<path style="fill:url(#SVGID_00000029013577098726962390000011358562135592189580_);" d="M342.703,387.358H157.296
			c-3.966,0-7.181-3.215-7.181-7.181V128.244c0-3.966,3.215-7.181,7.181-7.181h185.407c3.966,0,7.181,3.215,7.181,7.181v251.934
			C349.884,384.143,346.669,387.358,342.703,387.358z"/>
		<rect x="161.011" y="131.495" style="fill:#FFFFFF;" width="178.605" height="244.712"/>
		<g>
			<g>
				<path style="fill:#3A1081;" d="M217.369,191.745h-39.359v-39.358h39.359V191.745z M180.583,189.172h34.213v-34.213h-34.213
					V189.172z"/>
			</g>
		</g>
		<g>
			<g>
				<path style="fill:#3A1081;" d="M217.487,297.426h-39.358v-39.358h39.358V297.426z M180.702,294.853h34.213v-34.213h-34.213
					V294.853z"/>
			</g>
			<g>
				
					<linearGradient id="SVGID_00000080926431533355027080000000802006259914871428_" gradientUnits="userSpaceOnUse" x1="203.4259" y1="412.237" x2="203.4259" y2="260.517">
					<stop  offset="0" style="stop-color:#E692C0"/>
					<stop  offset="1" style="stop-color:#D1388D"/>
				</linearGradient>
				<path style="fill:url(#SVGID_00000080926431533355027080000000802006259914871428_);" d="M193.913,293.833
					c-0.049,0-0.097-0.002-0.146-0.005c-0.572-0.043-1.098-0.333-1.439-0.794l-9.201-12.439c-0.647-0.875-0.463-2.11,0.412-2.757
					c0.875-0.646,2.111-0.463,2.757,0.413l7.84,10.599l26.609-26.61c0.772-0.77,2.019-0.77,2.788,0
					c0.77,0.77,0.77,2.018,0.001,2.788l-28.228,28.228C194.935,293.626,194.434,293.833,193.913,293.833z"/>
			</g>
		</g>
		<g>
			<rect x="176.61" y="355.866" style="fill:#3A1081;" width="143.729" height="1.953"/>
			<g>
				
					<linearGradient id="SVGID_00000143581465613314604290000005480236341109077155_" gradientUnits="userSpaceOnUse" x1="233.0507" y1="410.4188" x2="233.0507" y2="196.754">
					<stop  offset="0" style="stop-color:#1A8BE6"/>
					<stop  offset="0.0038" style="stop-color:#1B8CE6"/>
					<stop  offset="0.2116" style="stop-color:#42A8EA"/>
					<stop  offset="0.4169" style="stop-color:#60BFEE"/>
					<stop  offset="0.6167" style="stop-color:#76CFF0"/>
					<stop  offset="0.8086" style="stop-color:#84D9F2"/>
					<stop  offset="0.9838" style="stop-color:#88DCF2"/>
				</linearGradient>
				<path style="fill:url(#SVGID_00000143581465613314604290000005480236341109077155_);" d="M233.107,325.274h-0.112
					c-2.486,0-4.501,2.015-4.501,4.501v26.058h9.114v-26.058C237.608,327.289,235.593,325.274,233.107,325.274z"/>
				
					<linearGradient id="SVGID_00000132051067844927388270000012288987282172671163_" gradientUnits="userSpaceOnUse" x1="250.7281" y1="412.2368" x2="250.7281" y2="260.5169">
					<stop  offset="0" style="stop-color:#E692C0"/>
					<stop  offset="1" style="stop-color:#D1388D"/>
				</linearGradient>
				<path style="fill:url(#SVGID_00000132051067844927388270000012288987282172671163_);" d="M250.797,308.782h-0.137
					c-3.026,0-5.48,2.453-5.48,5.48v41.571h11.096v-41.571C256.276,311.236,253.823,308.782,250.797,308.782z"/>
				
					<linearGradient id="SVGID_00000088130741068513592170000007038406095618953135_" gradientUnits="userSpaceOnUse" x1="265.4672" y1="410.4186" x2="265.4672" y2="196.7534">
					<stop  offset="0" style="stop-color:#1A8BE6"/>
					<stop  offset="0.0038" style="stop-color:#1B8CE6"/>
					<stop  offset="0.2116" style="stop-color:#42A8EA"/>
					<stop  offset="0.4169" style="stop-color:#60BFEE"/>
					<stop  offset="0.6167" style="stop-color:#76CFF0"/>
					<stop  offset="0.8086" style="stop-color:#84D9F2"/>
					<stop  offset="0.9838" style="stop-color:#88DCF2"/>
				</linearGradient>
				<path style="fill:url(#SVGID_00000088130741068513592170000007038406095618953135_);" d="M265.524,344.605h-0.114
					c-2.519,0-4.561,2.042-4.561,4.561v6.667h9.236v-6.667C270.085,346.647,268.043,344.605,265.524,344.605z"/>
			</g>
			<g>
				<g>
					
						<linearGradient id="SVGID_00000108987394045683517200000017123945744964841909_" gradientUnits="userSpaceOnUse" x1="184.7994" y1="412.237" x2="184.7994" y2="260.5172">
						<stop  offset="0" style="stop-color:#E692C0"/>
						<stop  offset="1" style="stop-color:#D1388D"/>
					</linearGradient>
					<path style="fill:url(#SVGID_00000108987394045683517200000017123945744964841909_);" d="M184.856,321.238h-0.113
						c-2.486,0-4.501,2.015-4.501,4.501v30.094h9.114v-30.094C189.357,323.253,187.341,321.238,184.856,321.238z"/>
					
						<linearGradient id="SVGID_00000104671068904818446370000014050515495416083110_" gradientUnits="userSpaceOnUse" x1="199.3658" y1="410.4186" x2="199.3658" y2="196.7535">
						<stop  offset="0" style="stop-color:#1A8BE6"/>
						<stop  offset="0.0038" style="stop-color:#1B8CE6"/>
						<stop  offset="0.2116" style="stop-color:#42A8EA"/>
						<stop  offset="0.4169" style="stop-color:#60BFEE"/>
						<stop  offset="0.6167" style="stop-color:#76CFF0"/>
						<stop  offset="0.8086" style="stop-color:#84D9F2"/>
						<stop  offset="0.9838" style="stop-color:#88DCF2"/>
					</linearGradient>
					<path style="fill:url(#SVGID_00000104671068904818446370000014050515495416083110_);" d="M199.423,330.738h-0.114
						c-2.519,0-4.561,2.042-4.561,4.561v20.534h9.236v-20.534C203.984,332.78,201.942,330.738,199.423,330.738z"/>
					
						<linearGradient id="SVGID_00000142866705728049713160000001786784691778787730_" gradientUnits="userSpaceOnUse" x1="214.7678" y1="412.2369" x2="214.7678" y2="260.5175">
						<stop  offset="0" style="stop-color:#E692C0"/>
						<stop  offset="1" style="stop-color:#D1388D"/>
					</linearGradient>
					<path style="fill:url(#SVGID_00000142866705728049713160000001786784691778787730_);" d="M214.825,336.252h-0.114
						c-2.519,0-4.561,2.042-4.561,4.561v15.02h9.236v-15.02C219.386,338.294,217.344,336.252,214.825,336.252z"/>
				</g>
			</g>
			<g>
				<g>
					
						<linearGradient id="SVGID_00000124842824605246134450000000050315963472311998_" gradientUnits="userSpaceOnUse" x1="281.1339" y1="412.2369" x2="281.1339" y2="260.5174">
						<stop  offset="0" style="stop-color:#E692C0"/>
						<stop  offset="1" style="stop-color:#D1388D"/>
					</linearGradient>
					<path style="fill:url(#SVGID_00000124842824605246134450000000050315963472311998_);" d="M281.19,330.738h-0.112
						c-2.486,0-4.501,2.015-4.501,4.501v20.594h9.114v-20.594C285.691,332.754,283.676,330.738,281.19,330.738z"/>
					
						<linearGradient id="SVGID_00000130626906879368486510000016642316592321965214_" gradientUnits="userSpaceOnUse" x1="296.8709" y1="410.4189" x2="296.8709" y2="196.7538">
						<stop  offset="0" style="stop-color:#1A8BE6"/>
						<stop  offset="0.0038" style="stop-color:#1B8CE6"/>
						<stop  offset="0.2116" style="stop-color:#42A8EA"/>
						<stop  offset="0.4169" style="stop-color:#60BFEE"/>
						<stop  offset="0.6167" style="stop-color:#76CFF0"/>
						<stop  offset="0.8086" style="stop-color:#84D9F2"/>
						<stop  offset="0.9838" style="stop-color:#88DCF2"/>
					</linearGradient>
					<path style="fill:url(#SVGID_00000130626906879368486510000016642316592321965214_);" d="M296.928,316.67h-0.114
						c-2.519,0-4.561,2.042-4.561,4.561v34.602h9.236v-34.602C301.489,318.712,299.447,316.67,296.928,316.67z"/>
					
						<linearGradient id="SVGID_00000152241699821477676970000013249642815290628016_" gradientUnits="userSpaceOnUse" x1="311.0411" y1="412.2369" x2="311.0411" y2="260.5175">
						<stop  offset="0" style="stop-color:#E692C0"/>
						<stop  offset="1" style="stop-color:#D1388D"/>
					</linearGradient>
					<path style="fill:url(#SVGID_00000152241699821477676970000013249642815290628016_);" d="M311.098,336.252h-0.114
						c-2.519,0-4.561,2.042-4.561,4.561v15.02h9.236v-15.02C315.659,338.294,313.617,336.252,311.098,336.252z"/>
				</g>
			</g>
		</g>
		<g>
			<rect x="176.531" y="235.104" style="fill:#3A1081;" width="45.747" height="2.842"/>
			<g>
				<g>
					
						<linearGradient id="SVGID_00000047061093108837291790000003269505446843826349_" gradientUnits="userSpaceOnUse" x1="184.7211" y1="412.2372" x2="184.7211" y2="260.517">
						<stop  offset="0" style="stop-color:#E692C0"/>
						<stop  offset="1" style="stop-color:#D1388D"/>
					</linearGradient>
					<path style="fill:url(#SVGID_00000047061093108837291790000003269505446843826349_);" d="M184.777,200.509h-0.113
						c-2.486,0-4.501,2.015-4.501,4.501v30.094h9.114V205.01C189.278,202.524,187.263,200.509,184.777,200.509z"/>
					
						<linearGradient id="SVGID_00000067224785235912463100000011990954733243515271_" gradientUnits="userSpaceOnUse" x1="199.2874" y1="410.4185" x2="199.2874" y2="196.7535">
						<stop  offset="0" style="stop-color:#1A8BE6"/>
						<stop  offset="0.0038" style="stop-color:#1B8CE6"/>
						<stop  offset="0.2116" style="stop-color:#42A8EA"/>
						<stop  offset="0.4169" style="stop-color:#60BFEE"/>
						<stop  offset="0.6167" style="stop-color:#76CFF0"/>
						<stop  offset="0.8086" style="stop-color:#84D9F2"/>
						<stop  offset="0.9838" style="stop-color:#88DCF2"/>
					</linearGradient>
					<path style="fill:url(#SVGID_00000067224785235912463100000011990954733243515271_);" d="M199.344,210.01h-0.114
						c-2.519,0-4.561,2.042-4.561,4.561v20.534h9.236v-20.534C203.906,212.051,201.863,210.01,199.344,210.01z"/>
					
						<linearGradient id="SVGID_00000112634167610319774150000014069735738268344491_" gradientUnits="userSpaceOnUse" x1="214.6894" y1="412.2375" x2="214.6894" y2="260.5173">
						<stop  offset="0" style="stop-color:#E692C0"/>
						<stop  offset="1" style="stop-color:#D1388D"/>
					</linearGradient>
					<path style="fill:url(#SVGID_00000112634167610319774150000014069735738268344491_);" d="M214.746,215.523h-0.114
						c-2.519,0-4.561,2.042-4.561,4.561v15.02h9.236v-15.02C219.308,217.565,217.265,215.523,214.746,215.523z"/>
				</g>
			</g>
		</g>
		<g>
			<path style="fill:#3A1081;" d="M309.725,213.402h-79.4c-0.928,0-1.688-0.76-1.688-1.688l0,0c0-0.928,0.76-1.688,1.688-1.688h79.4
				c0.928,0,1.688,0.759,1.688,1.688l0,0C311.413,212.642,310.653,213.402,309.725,213.402z"/>
			<g>
				<path style="fill:#0071D3;" d="M302.449,221.245h-72.124c-0.928,0-1.688-0.759-1.688-1.688l0,0c0-0.928,0.76-1.688,1.688-1.688
					h72.124c0.928,0,1.688,0.759,1.688,1.688l0,0C304.137,220.486,303.377,221.245,302.449,221.245z"/>
				<path style="fill:#0071D3;" d="M302.449,237.892h-72.124c-0.928,0-1.688-0.759-1.688-1.688l0,0c0-0.928,0.76-1.688,1.688-1.688
					h72.124c0.928,0,1.688,0.759,1.688,1.688l0,0C304.137,237.133,303.377,237.892,302.449,237.892z"/>
				<g>
					<path style="fill:#0071D3;" d="M272.441,229.515h-42.117c-0.928,0-1.688-0.759-1.688-1.688l0,0c0-0.928,0.76-1.688,1.688-1.688
						h42.117c0.928,0,1.688,0.759,1.688,1.688l0,0C274.129,228.756,273.37,229.515,272.441,229.515z"/>
					<path style="fill:#0071D3;" d="M322.339,229.515h-42.116c-0.928,0-1.688-0.759-1.688-1.688l0,0
						c0-0.928,0.759-1.688,1.688-1.688h42.116c0.928,0,1.688,0.759,1.688,1.688l0,0
						C324.026,228.756,323.267,229.515,322.339,229.515z"/>
				</g>
			</g>
		</g>
		<g>
			<path style="fill:#3A1081;" d="M309.725,269.876h-79.4c-0.928,0-1.688-0.759-1.688-1.688l0,0c0-0.928,0.76-1.688,1.688-1.688
				h79.4c0.928,0,1.688,0.759,1.688,1.688l0,0C311.413,269.116,310.653,269.876,309.725,269.876z"/>
			<g>
				<path style="fill:#0071D3;" d="M302.449,277.72h-72.124c-0.928,0-1.688-0.76-1.688-1.688l0,0c0-0.928,0.76-1.688,1.688-1.688
					h72.124c0.928,0,1.688,0.759,1.688,1.688l0,0C304.137,276.96,303.377,277.72,302.449,277.72z"/>
				<path style="fill:#0071D3;" d="M302.449,294.366h-72.124c-0.928,0-1.688-0.759-1.688-1.688l0,0c0-0.928,0.76-1.688,1.688-1.688
					h72.124c0.928,0,1.688,0.759,1.688,1.688l0,0C304.137,293.607,303.377,294.366,302.449,294.366z"/>
				<g>
					<path style="fill:#0071D3;" d="M272.441,285.99h-42.117c-0.928,0-1.688-0.759-1.688-1.688l0,0c0-0.928,0.76-1.688,1.688-1.688
						h42.117c0.928,0,1.688,0.759,1.688,1.688l0,0C274.129,285.23,273.37,285.99,272.441,285.99z"/>
					<path style="fill:#0071D3;" d="M322.339,285.99h-42.116c-0.928,0-1.688-0.759-1.688-1.688l0,0c0-0.928,0.759-1.688,1.688-1.688
						h42.116c0.928,0,1.688,0.759,1.688,1.688l0,0C324.026,285.23,323.267,285.99,322.339,285.99z"/>
				</g>
			</g>
		</g>
		<g>
			<path style="fill:#3A1081;" d="M309.516,163.239h-79.4c-0.928,0-1.688-0.759-1.688-1.688l0,0c0-0.928,0.759-1.688,1.688-1.688
				h79.4c0.928,0,1.688,0.759,1.688,1.688l0,0C311.203,162.479,310.444,163.239,309.516,163.239z"/>
			<g>
				<path style="fill:#0071D3;" d="M302.239,171.082h-72.124c-0.928,0-1.688-0.76-1.688-1.688l0,0c0-0.928,0.759-1.688,1.688-1.688
					h72.124c0.928,0,1.688,0.76,1.688,1.688l0,0C303.927,170.323,303.168,171.082,302.239,171.082z"/>
				<path style="fill:#0071D3;" d="M302.239,187.729h-72.124c-0.928,0-1.688-0.759-1.688-1.688l0,0c0-0.928,0.759-1.688,1.688-1.688
					h72.124c0.928,0,1.688,0.759,1.688,1.688l0,0C303.927,186.97,303.168,187.729,302.239,187.729z"/>
				<g>
					<path style="fill:#0071D3;" d="M272.232,179.352h-42.116c-0.928,0-1.688-0.759-1.688-1.688l0,0
						c0-0.928,0.759-1.688,1.688-1.688h42.116c0.928,0,1.688,0.759,1.688,1.688l0,0C273.919,178.593,273.16,179.352,272.232,179.352
						z"/>
					<path style="fill:#0071D3;" d="M322.129,179.352h-42.117c-0.928,0-1.688-0.759-1.688-1.688l0,0
						c0-0.928,0.759-1.688,1.688-1.688h42.117c0.928,0,1.688,0.759,1.688,1.688l0,0
						C323.817,178.593,323.057,179.352,322.129,179.352z"/>
				</g>
			</g>
		</g>
		<path style="fill:#3A1081;" d="M251.741,94.244h-2.847c-11.337,0-21.611,4.597-29.038,12.032
			c-5.939,5.939-10.068,13.694-11.484,22.361c-0.572,3.501,2.182,6.669,5.73,6.669h72.424c3.548,0,6.302-3.167,5.73-6.669
			C289.07,109.133,272.145,94.244,251.741,94.244z M250.797,114.237c-3.633,0-6.58-2.946-6.58-6.58c0-3.627,2.946-6.574,6.58-6.574
			c3.633,0,6.574,2.946,6.574,6.574C257.37,111.29,254.43,114.237,250.797,114.237z"/>
	</g>
	<g>
		<ellipse style="fill:#F2F2F2;" cx="337.284" cy="434.423" rx="45.962" ry="5.571"/>
		<g>
			<g>
				<path style="fill:#9A575E;" d="M356.13,341.035c-1.555-4.719-3.168-11.727-4.987-16.285c-0.465-1.164,0,0-0.918-0.417
					c-1.351-0.613-21.854,2.006-21.854,2.006c-1.276,5.488-2.225,11.301-3.738,16.778c-1.222,4.425-2.933,8.624-3.732,13.162
					c-0.889,5.05-0.805,11.368,1.15,16.043c2.05,4.903,5.759,8.705,9.168,12.18c2.262,2.306,5.068,3.639,7.471,5.688
					c0.928,0.791,1.763,1.741,2.729,2.439c1.198,0.865,1.75,0.537,2.609-0.741c1.841-2.74,3.451-5.615,5.244-8.384
					c1.737-2.682,3.408-5.342,4.817-8.316C361.112,360.371,357.876,346.335,356.13,341.035z"/>
			</g>
			<path style="fill:#E9B7B6;" d="M349.755,353.181l-1.972,4.82c-2.839,6.912-12.675,6.792-15.342-0.197l-1.724-4.528
				c0.283-0.008,0.557-0.026,0.832-0.034c1.269-0.06,2.41-0.257,3.379-1.141c0.497-0.463,0.883-1.038,1.115-1.681
				c0.137-0.352,0.214-0.729,0.249-1.106c0.026-0.266-0.18-2.641-0.506-2.641c0.395-0.094,7.204-1.732,7.204-1.732
				c0.069,0.772,0.137,1.535,0.206,2.307c0.086,0.918-0.034,1.844,0.137,2.753c0.009,0.069,0.017,0.137,0.034,0.206
				c0.18,0.798,0.626,1.672,1.346,2.11c1.261,0.772,2.933,0.806,4.357,0.857C349.197,353.181,349.455,353.181,349.755,353.181z"/>
			
				<linearGradient id="SVGID_00000004506692604284555080000013835733038659758992_" gradientUnits="userSpaceOnUse" x1="364.0988" y1="441.3279" x2="364.0988" y2="340.9887">
				<stop  offset="0" style="stop-color:#D1388D"/>
				<stop  offset="0.1947" style="stop-color:#D23D90"/>
				<stop  offset="0.4146" style="stop-color:#D54A97"/>
				<stop  offset="0.6467" style="stop-color:#DB61A4"/>
				<stop  offset="0.8857" style="stop-color:#E280B6"/>
				<stop  offset="1" style="stop-color:#E692C0"/>
			</linearGradient>
			<path style="fill:url(#SVGID_00000004506692604284555080000013835733038659758992_);" d="M349.755,353.181
				c0,0,6.632-2.234,13.017,7.817c3.019,4.752,6.221,9.386,9.841,13.698l4.671,5.562c2.365,2.817,0.924,7.138-2.658,7.971l0,0
				l-22.7-17.901L349.755,353.181z"/>
			
				<linearGradient id="SVGID_00000158742769040023702380000015747282277985148340_" gradientUnits="userSpaceOnUse" x1="316.3804" y1="441.328" x2="316.3804" y2="340.9886">
				<stop  offset="0" style="stop-color:#D1388D"/>
				<stop  offset="0.1947" style="stop-color:#D23D90"/>
				<stop  offset="0.4146" style="stop-color:#D54A97"/>
				<stop  offset="0.6467" style="stop-color:#DB61A4"/>
				<stop  offset="0.8857" style="stop-color:#E280B6"/>
				<stop  offset="1" style="stop-color:#E692C0"/>
			</linearGradient>
			<path style="fill:url(#SVGID_00000158742769040023702380000015747282277985148340_);" d="M331.194,353.828
				c0,0-7.572-2.505-13.958,7.546c-3.019,4.752-6.221,9.386-9.841,13.698l-4.671,5.562c-2.365,2.816-0.924,7.138,2.658,7.971l0,0
				l22.7-17.901L331.194,353.828z"/>
			
				<linearGradient id="SVGID_00000031912459173671164650000009425969199954335106_" gradientUnits="userSpaceOnUse" x1="339.1185" y1="410.4189" x2="339.1185" y2="196.7544">
				<stop  offset="0" style="stop-color:#1A8BE6"/>
				<stop  offset="0.0038" style="stop-color:#1B8CE6"/>
				<stop  offset="0.2116" style="stop-color:#42A8EA"/>
				<stop  offset="0.4169" style="stop-color:#60BFEE"/>
				<stop  offset="0.6167" style="stop-color:#76CFF0"/>
				<stop  offset="0.8086" style="stop-color:#84D9F2"/>
				<stop  offset="0.9838" style="stop-color:#88DCF2"/>
			</linearGradient>
			<polygon style="fill:url(#SVGID_00000031912459173671164650000009425969199954335106_);" points="319.641,407.078 
				307.554,407.078 326.941,423.994 345.62,425.344 370.683,406.454 356.342,406.006 			"/>
			
				<linearGradient id="SVGID_00000019645511685513527960000009785429928039386549_" gradientUnits="userSpaceOnUse" x1="337.9974" y1="441.3279" x2="337.9974" y2="340.9885">
				<stop  offset="0" style="stop-color:#D1388D"/>
				<stop  offset="0.1947" style="stop-color:#D23D90"/>
				<stop  offset="0.4146" style="stop-color:#D54A97"/>
				<stop  offset="0.6467" style="stop-color:#DB61A4"/>
				<stop  offset="0.8857" style="stop-color:#E280B6"/>
				<stop  offset="1" style="stop-color:#E692C0"/>
			</linearGradient>
			<path style="fill:url(#SVGID_00000019645511685513527960000009785429928039386549_);" d="M356.341,406.008
				c-10.325,11.337-22.7,10.823-36.688,1.072l9.09-14.716c0.695-1.587,1.003-3.302,0.901-5.017
				c-0.069-1.218-0.335-2.418-0.815-3.585l-0.352-0.858l-2.393-5.72c-0.755-1.844-1.141-3.825-1.141-5.789
				c0-1.672,0.283-3.336,0.832-4.957c0.454-1.312,0.755-2.684,0.883-4.056l-0.129-5.137l-0.326-3.362
				c1.458-0.463,2.993-0.549,4.511-0.609l1.724,4.528c2.667,6.989,12.504,7.109,15.342,0.197l1.972-4.82
				c0.763,0,1.809-0.009,1.809-0.009c1.544,2.47,0.678,8.602,2.71,12.718c2.067,4.185,0.626,9.691-1.569,13.996l-2.281,4.451
				l-1.887,3.705c-0.274,0.729-0.36,1.629-0.36,2.564c0,0.454,0,0.9,0.034,1.346c0.069,0.789,0.326,1.561,0.746,2.238
				L356.341,406.008z"/>
			<g>
				
					<linearGradient id="SVGID_00000056405413538560562390000008550752078380683399_" gradientUnits="userSpaceOnUse" x1="345.3837" y1="451.0249" x2="345.3837" y2="237.3595">
					<stop  offset="0" style="stop-color:#1A8BE6"/>
					<stop  offset="0.0038" style="stop-color:#1B8CE6"/>
					<stop  offset="0.2116" style="stop-color:#42A8EA"/>
					<stop  offset="0.4169" style="stop-color:#60BFEE"/>
					<stop  offset="0.6167" style="stop-color:#76CFF0"/>
					<stop  offset="0.8086" style="stop-color:#84D9F2"/>
					<stop  offset="0.9838" style="stop-color:#88DCF2"/>
				</linearGradient>
				<path style="fill:url(#SVGID_00000056405413538560562390000008550752078380683399_);" d="M378.93,416.91
					c-0.763,3.365-3.413,5.805-6.578,6.482c-0.286,0.057-0.562,0.105-0.848,0.133c-10.924,3.003-22.936,5.129-35.872,6.539
					c-3.613,0.391-7.302,0.724-11.058,1.01l-6.349,5.901c-0.057,0.048-0.115,0.105-0.181,0.153c-2.86,2.25-6.988-0.353-6.358-3.928
					l0.372-2.126c0-0.01,0.009-0.029,0.009-0.038c0.753-2.078,2.621-3.556,4.785-3.947l6.587-1.201
					c2.46-0.782,4.881-1.554,7.255-2.345c14.08-4.633,26.644-9.523,36.224-16.272c1.678-0.791,3.613-1.058,5.557-0.61
					C377.09,407.702,379.979,412.297,378.93,416.91z"/>
				<path style="fill:#3A1081;" d="M324.575,431.076l-6.349,5.901c-0.057,0.048-0.115,0.105-0.181,0.153
					c-2.86,2.25-6.988-0.353-6.358-3.928l0.372-2.126c0-0.01,0.009-0.029,0.009-0.038c0.753-2.078,2.621-3.556,4.785-3.947
					l6.587-1.201C325.9,425.109,328.331,430.79,324.575,431.076z"/>
			</g>
			<g>
				
					<linearGradient id="SVGID_00000170261220258280681080000017199652961909021840_" gradientUnits="userSpaceOnUse" x1="331.3494" y1="462.5401" x2="331.3494" y2="248.8746">
					<stop  offset="0" style="stop-color:#1A8BE6"/>
					<stop  offset="0.0038" style="stop-color:#1B8CE6"/>
					<stop  offset="0.2116" style="stop-color:#42A8EA"/>
					<stop  offset="0.4169" style="stop-color:#60BFEE"/>
					<stop  offset="0.6167" style="stop-color:#76CFF0"/>
					<stop  offset="0.8086" style="stop-color:#84D9F2"/>
					<stop  offset="0.9838" style="stop-color:#88DCF2"/>
				</linearGradient>
				<path style="fill:url(#SVGID_00000170261220258280681080000017199652961909021840_);" d="M358.454,436.595
					c-0.067-0.047-0.124-0.105-0.181-0.152l-6.454-5.996c-3.813-0.4-7.579-0.81-11.249-1.239
					c-13.575-1.602-25.919-3.518-35.099-6.234c-0.286-0.038-0.572-0.076-0.849-0.143c-3.165-0.667-5.815-3.107-6.587-6.473
					c-1.039-4.614,1.849-9.208,6.463-10.257c1.945-0.439,3.88-0.172,5.558,0.62c9.714,6.282,21.22,11.363,33.927,15.624
					c3.27,1.106,6.616,2.154,10.038,3.146l-0.009,0.038l5.624,1.03c2.173,0.391,4.032,1.868,4.785,3.947
					c0.009,0.009,0.009,0.029,0.019,0.038l0.372,2.126C365.432,436.243,361.304,438.845,358.454,436.595z"/>
				<path style="fill:#3A1081;" d="M358.454,436.595c-0.067-0.047-0.124-0.105-0.181-0.152l-6.454-5.996c0,0-2.026-4.09,2.202-4.957
					l-0.009,0.038l5.624,1.03c2.173,0.391,4.032,1.868,4.785,3.947c0.009,0.009,0.009,0.029,0.019,0.038l0.372,2.126
					C365.432,436.243,361.304,438.845,358.454,436.595z"/>
			</g>
			<g>
				<path style="fill:#EEC8C7;" d="M375.796,388.579l-12.896,8.486l-3.471,2.287l-1.985,1.312l-1.265-3.343
					c0.197-0.093,0.372-0.232,0.522-0.406l0.162-0.186l2.287-2.624c0,0,10.981-18.178,17.006-15.09
					C379.36,381.475,379.163,386.362,375.796,388.579z"/>
				<path style="fill:#EAB07B;" d="M357.444,400.663l-0.29,0.197c-0.464,0.29-1.01,0.464-1.555,0.488l-5.699,0.151
					c0.894,2.008-7.243,6.21-8.915,3.517c0,0,4.016-6.86,4.759-7.58l0.859-0.813c0.952-0.894,2.322-1.184,3.564-0.754l4.539,1.567
					c0.499,0.174,1.033,0.128,1.474-0.116L357.444,400.663z"/>
			</g>
			<g>
				<path style="fill:#EEC8C7;" d="M304.215,388.579l12.896,8.486l3.471,2.287l1.985,1.312l1.265-3.343
					c-0.197-0.093-0.371-0.232-0.522-0.406l-0.163-0.186l-2.287-2.624c0,0-10.981-18.178-17.006-15.09
					C300.651,381.475,300.848,386.362,304.215,388.579z"/>
				<path style="fill:#EAB07B;" d="M322.567,400.663l0.29,0.197c0.464,0.29,1.01,0.464,1.555,0.488l5.699,0.151
					c-0.894,2.008,7.243,6.21,8.915,3.517c0,0-4.016-6.86-4.759-7.58l-0.859-0.813c-0.952-0.894-2.322-1.184-3.564-0.754
					l-4.539,1.567c-0.499,0.174-1.033,0.128-1.474-0.116L322.567,400.663z"/>
			</g>
			<g>
				<path style="fill:#3A1081;" d="M359.624,387.358H318.87c-1.311,0-2.317,1.165-2.124,2.463l3.139,21.125
					c-0.777,0.19-1.36,0.89-1.36,1.724l0,0c0,0.979,0.801,1.779,1.779,1.779h37.627c0.979,0,1.779-0.801,1.779-1.779l0,0
					c0-0.954-0.763-1.733-1.708-1.772l3.734-21.016C361.971,388.566,360.96,387.358,359.624,387.358z"/>
				<path style="fill:#FFFFFF;" d="M341.81,398.924c1.002,1.002,1.002,2.627,0,3.63c-1.002,1.002-2.627,1.002-3.63,0
					c-1.002-1.002-1.002-2.627,0-3.63C339.183,397.921,340.808,397.921,341.81,398.924z"/>
			</g>
			<g>
				<path style="fill:#EEC8C7;" d="M352.397,331.629c-0.488-0.042-1.043,0.138-1.587,0.46c-0.718-3.283-2.446-6.776-4.576-9.179
					c-0.894-1.193-1.921-1.971-3.039-2.438c-0.605-0.295-1.217-0.493-1.829-0.547c-0.421-0.036-0.836-0.051-1.246-0.045
					c-0.41-0.006-0.826,0.009-1.246,0.045c-0.612,0.053-1.225,0.252-1.829,0.547c-1.118,0.467-2.145,1.245-3.039,2.438
					c-2.13,2.403-3.858,5.897-4.576,9.179c-0.544-0.322-1.099-0.503-1.587-0.46c-1.634,0.142-2.168,2.732-1.719,4.696
					c0.57,2.49,2.45,3.27,4.193,3.766c0.798,1.647,1.928,3.26,3.232,4.609c1.365,1.608,3.125,2.8,5.134,3.287
					c0.059,0.015,0.118,0.028,0.178,0.042c0.117,0.026,0.23,0.062,0.349,0.083c0.079,0.014,0.161,0.014,0.241,0.024
					c0.068,0.009,0.135,0.013,0.203,0.02c0.155,0.013,0.311,0.023,0.468,0.022c0.157,0.001,0.312-0.009,0.468-0.022
					c0.067-0.006,0.135-0.011,0.202-0.02c0.08-0.01,0.161-0.01,0.241-0.024c0.118-0.021,0.232-0.057,0.349-0.083
					c0.059-0.013,0.118-0.027,0.177-0.042c2.009-0.487,3.77-1.68,5.135-3.288c1.304-1.349,2.433-2.962,3.231-4.608
					c1.743-0.496,3.623-1.276,4.193-3.766C354.565,334.362,354.031,331.771,352.397,331.629z"/>
				<g>
					<path style="fill:#9A575E;" d="M349.167,320.522c-2.889-3.844-9.657-4.915-13.739-2.74c-1.074,0.572-1.991,1.4-2.86,2.259
						c-2.113,2.087-4.086,4.584-4.452,7.604c-0.209,1.722,0.125,3.478,0.458,5.198c0.371,1.916,0.741,3.832,1.111,5.748
						c1.51-8.183,9.032-12.846,16.154-12.168c0,0,1.357,12.459,4.084,13.669C352.663,328.214,352.056,324.366,349.167,320.522z"/>
				</g>
				<g>
					<g>
						<path style="fill:#3A1081;" d="M338.478,340.059c0.081-0.025,0.148-0.09,0.173-0.177c0.039-0.138-0.042-0.281-0.18-0.319
							c-0.832-0.234-0.87-0.437-0.87-0.439c0.001-0.214,0.863-0.656,1.792-0.923c0.154-0.056,0.218-0.182,0.179-0.32
							c-0.04-0.137-0.182-0.217-0.32-0.178c-0.65,0.182-2.169,0.692-2.168,1.422c0,0.525,0.712,0.786,1.247,0.937
							C338.381,340.075,338.431,340.073,338.478,340.059z"/>
					</g>
					<g>
						<path style="fill:#3A1081;" d="M340.906,342.743c1.149-0.359,2.4-1.198,2.93-3.103c0.043-0.156-0.049-0.319-0.205-0.363
							c-0.155-0.044-0.318,0.047-0.363,0.205c-0.947,3.402-4.447,2.919-4.597,2.897c-0.161-0.025-0.31,0.087-0.335,0.248
							c-0.024,0.161,0.087,0.311,0.247,0.335C338.604,342.966,339.698,343.12,340.906,342.743z"/>
					</g>
					<g>
						<path style="fill:#3A1081;" d="M336.646,335.545c-0.039,0.573-0.483,1.01-0.992,0.976s-0.891-0.527-0.852-1.101
							c0.039-0.573,0.483-1.01,0.992-0.975C336.303,334.478,336.685,334.971,336.646,335.545z"/>
					</g>
					<g>
						<path style="fill:#3A1081;" d="M344.824,335.545c-0.039,0.573-0.483,1.01-0.993,0.976c-0.509-0.035-0.891-0.527-0.852-1.101
							c0.039-0.573,0.483-1.01,0.992-0.975C344.482,334.478,344.863,334.971,344.824,335.545z"/>
					</g>
					<g>
						<path style="fill:#3A1081;" d="M345.93,333.134c0.01-0.003,0.02-0.007,0.03-0.011c0.149-0.065,0.218-0.239,0.153-0.388
							c-0.777-1.78-2.386-1.717-3.135-1.443c-0.152,0.057-0.229,0.226-0.172,0.378c0.056,0.153,0.209,0.234,0.378,0.174
							c0.052-0.02,1.643-0.582,2.388,1.126C345.632,333.11,345.787,333.178,345.93,333.134z"/>
					</g>
					<g>
						<path style="fill:#3A1081;" d="M334.913,332.494c0.085-0.026,0.156-0.091,0.189-0.18l0,0c0.037-0.1,0.395-0.961,1.436-0.645
							c0.155,0.048,0.321-0.041,0.368-0.197c0.047-0.156-0.041-0.321-0.197-0.368c-1.281-0.388-1.974,0.49-2.161,1.008
							c-0.055,0.153,0.024,0.322,0.177,0.377C334.788,332.513,334.853,332.513,334.913,332.494z"/>
					</g>
				</g>
			</g>
		</g>
	</g>
	<g>
		<g>
			
				<linearGradient id="SVGID_00000114054407429677005130000014339136920267107001_" gradientUnits="userSpaceOnUse" x1="191.0289" y1="66.1858" x2="196.4834" y2="148.6103">
				<stop  offset="0" style="stop-color:#E692C0"/>
				<stop  offset="0.1984" style="stop-color:#E58EBD"/>
				<stop  offset="0.4157" style="stop-color:#E280B6"/>
				<stop  offset="0.642" style="stop-color:#DD6AAA"/>
				<stop  offset="0.873" style="stop-color:#D64C98"/>
				<stop  offset="1" style="stop-color:#D1388D"/>
			</linearGradient>
			<path style="fill:url(#SVGID_00000114054407429677005130000014339136920267107001_);" d="M188.309,126.92
				c-2.522,6.3-5.717,13.255-9.762,20.621l5.317,3.181c4.87-5.994,9.161-12.464,12.964-19.314
				c5.153-9.326,9.425-19.376,13.025-29.937c1.168-2.097,1.411-4.214,0.728-5.947c0,0,0.007-0.019,0.001-0.032
				c-0.005-0.044-0.023-0.083-0.028-0.127c-0.012-0.025-0.036-0.045-0.054-0.083c-0.005-0.044-0.035-0.108-0.065-0.172
				c-0.701-1.507-2.143-2.669-4.235-3.125c-0.801-0.186-1.55-0.226-2.263-0.19c-2.147,0.16-4.018,1.248-5.31,2.843l-0.013,0.006
				c-0.731,0.899-1.284,1.949-1.593,3.087c-0.083,0.256-0.127,0.494-0.172,0.732c-0.476,2.583-1.361,6.692-2.864,11.943
				C192.669,115.089,190.829,120.683,188.309,126.92z"/>
			<path style="fill:#A4686E;" d="M171.65,156.417l2.878-1.206c-2.925,5.484-4.095,8.871-4.565,10.786
				c-0.24,1.043,0.782,2.001,1.794,1.627c6.442-2.304,8.59-12.447,8.59-12.447s2.971-4.336,3.519-4.456l-5.317-3.181
				c-0.693,1.377-1.735,3.585-3.615,4.28c-2.382,1.237-3.706,2.245-4.419,3.037C169.814,155.636,170.684,156.822,171.65,156.417z"/>
		</g>
		<g>
			
				<linearGradient id="SVGID_00000070105675055812255600000009958837825084834998_" gradientUnits="userSpaceOnUse" x1="162.6218" y1="68.0657" x2="168.0763" y2="150.4902">
				<stop  offset="0" style="stop-color:#E692C0"/>
				<stop  offset="0.1984" style="stop-color:#E58EBD"/>
				<stop  offset="0.4157" style="stop-color:#E280B6"/>
				<stop  offset="0.642" style="stop-color:#DD6AAA"/>
				<stop  offset="0.873" style="stop-color:#D64C98"/>
				<stop  offset="1" style="stop-color:#D1388D"/>
			</linearGradient>
			<path style="fill:url(#SVGID_00000070105675055812255600000009958837825084834998_);" d="M159.984,125.802
				c-3.992,5.281-8.785,11.006-14.485,16.899l4.187,4.359c6.123-4.39,11.823-9.378,17.163-14.847
				c7.245-7.453,13.848-15.814,19.948-24.829c1.638-1.674-2.401-10.477-3.082-10.626c-2.062-0.401-4.102,0.143-5.728,1.312
				l-0.014,0.002c-0.919,0.659-1.709,1.504-2.292,2.496c-0.144,0.22-0.247,0.432-0.35,0.645c-1.111,2.308-3,5.948-5.763,10.504
				C167.126,115.788,163.958,120.58,159.984,125.802z"/>
			<path style="fill:#A4686E;" d="M136.728,149.284l3.018-0.396c-4.161,4.41-6.133,7.297-7.067,8.979
				c-0.494,0.92,0.222,2.084,1.27,1.992c6.654-0.513,11.281-9.508,11.281-9.508s3.91-3.318,4.456-3.29l-4.187-4.359
				c0.255,0.266-2.553,2.929-4.501,3.099c-2.559,0.552-4.065,1.161-4.939,1.723C135.201,148.077,135.716,149.417,136.728,149.284z"
				/>
		</g>
	</g>
	<g>
		<ellipse style="fill:#F2F2F2;" cx="96.707" cy="433.678" rx="35.396" ry="4.29"/>
		<g>
			<g>
				<path style="fill:#9A575E;" d="M101.742,266.381c-0.568-5.889-0.777-11.794-2.312-17.583c-0.761-2.872-2.11-5.928-3.842-8.302
					c-1.481-2.031-2.76-4.323-4.358-6.236c-1.898-2.272-4.898-4.019-7.718-4.734c-1.907-0.483-3.384-0.223-4.897,0.301
					c-2.295,0.409-4.46,1.79-5.913,3.606c-3.781,4.726-2.337,11.899,1.218,16.174c2.24,2.695,3.745,5.205,3.739,8.781
					c-0.005,2.53-0.054,4.501-0.8,6.884c-1.386,4.43-5.581,10.169-0.169,13.852c2.592,1.764,5.737,2.393,6.23,5.984
					c0.478,3.483-3.129,5.14-5.921,3.612c2.304,2.142,6.093,1.583,8.956,1.2c3.566-0.477,6.373-1.776,9.148-4.166
					c3.373-2.905,6.076-5.327,6.647-9.95C102.123,272.777,102.034,269.412,101.742,266.381z"/>
			</g>
			<path style="fill:#E8B8B7;" d="M90.682,263.411l0.54-0.839c0.704-1.07,1.711-1.917,2.887-2.444
				c0.185-0.072,0.37-0.143,0.569-0.211c1.096-0.362,2.261-0.779,3.459-1.216c0.016-0.01,0.03-0.007,0.046-0.018
				c9.476-3.47,21.596-8.803,25.967-10.761c1.066-0.481,1.677-0.754,1.677-0.754s0.347-0.67,0.918-1.84
				c2.362-4.832,8.577-18.083,9.688-26.029c-0.271-2.134-0.816-6.895-0.529-9.764c0.837-2.041,1.733,0.006,2.664,4.05l1.577-7.066
				c0.465-2.082,3.246-2.604,4.378-0.786c2.173,3.531-0.93,11.117-3.555,14.79c-0.942,9.972-7.32,24.837-9.232,29.106
				c-0.029,0.064-0.057,0.128-0.099,0.189l0,0c-0.951,2.395-2.585,4.452-4.703,5.919c-4.179,2.893-11.544,7.931-17.018,11.345
				c-3.442,2.151-6.94,4.05-10.2,5.325c-1.392,0.549-3.76,0.67-5.224,0.343C90.301,271.815,88.346,266.993,90.682,263.411z"/>
			<g>
				<g>
					<path style="fill:#6CA8FB;" d="M113.129,326.091c0.004-0.022,0.009-0.044,0.013-0.067
						C113.143,326.018,113.131,326.086,113.129,326.091z"/>
				</g>
				<path style="fill:#F3D559;" d="M86.545,265.254"/>
				<path style="fill:#E4AAAF;" d="M102.206,273.368c-8.111-0.752-12.787-6.524-14.7-9.729l1.341-2.256
					c0.834-1.39,1.504-2.845,2.028-4.382l1.455-4.284l5.854,2.518c-0.768,2.126-0.654,4.3,0.213,6.524
					c0.392,1.03,1.21,1.88,2.175,2.404l0.033,0.016l2.273,1.063C108.517,272.648,102.206,273.368,102.206,273.368z"/>
				<g>
					<path style="fill:#E8B8B7;" d="M85.336,251.716c-1.061-1.478-1.521-3.823-0.209-4.512c0.392-0.206,0.917-0.249,1.483-0.171
						c-0.935-5.079,0.337-11.709,3.616-13.432c4.291-2.254,9.068-1.679,14.587,9.566c2.184,4.449,1.109,10.556-2.94,13.158
						c-3.043,1.955-8.359,0.031-11.727-2.937C88.519,253.584,86.68,253.591,85.336,251.716z"/>
					<g>
						<g>
							<g>
								<path style="fill:#3A1081;" d="M101.434,247.591c0.021-0.006,0.042-0.015,0.061-0.027c0.485-0.295,1.112-0.747,0.969-1.264
									c-0.2-0.717-1.83-0.8-2.521-0.802c-0.146,0.002-0.264,0.118-0.266,0.264c0,0.146,0.117,0.264,0.263,0.265
									c0.977,0.004,1.956,0.205,2.014,0.415c0.001,0.002,0.019,0.211-0.733,0.669c-0.125,0.076-0.165,0.239-0.089,0.364
									C101.195,247.58,101.321,247.625,101.434,247.591z"/>
							</g>
						</g>
						<g>
							<g>
								<path style="fill:#3A1081;" d="M102.168,250.742c0.277-0.114,0.44-0.206,0.447-0.21c0.144-0.083,0.193-0.266,0.111-0.41
									c-0.084-0.143-0.255-0.203-0.411-0.111c-0.13,0.077-3.285,1.831-5.444-1.048c-0.099-0.133-0.285-0.163-0.421-0.06
									c-0.132,0.099-0.159,0.288-0.06,0.421C98.361,251.952,101.103,251.182,102.168,250.742z"/>
							</g>
						</g>
						<path style="fill:#3A1081;" d="M94.954,245.725"/>
						<g>
							<g>
								<path style="fill:#3A1081;" d="M92.313,244.714c0.109-0.033,0.195-0.127,0.212-0.247c0.263-1.893,1.963-1.769,2.036-1.763
									c0.165,0.014,0.31-0.108,0.325-0.273c0.014-0.165-0.109-0.311-0.275-0.325c-0.808-0.07-2.41,0.319-2.683,2.279
									c-0.023,0.164,0.092,0.316,0.257,0.339C92.23,244.73,92.273,244.726,92.313,244.714z"/>
							</g>
						</g>
						<g>
							<g>
								<path style="fill:#3A1081;" d="M99.488,240.629c0.087,0.039,0.194,0.027,0.27-0.041c1.206-1.058,2.219-0.046,2.261-0.002
									c0.097,0.1,0.256,0.101,0.357,0.005c0.1-0.097,0.102-0.257,0.004-0.357c-0.475-0.488-1.706-1.121-2.956-0.025
									c-0.104,0.092-0.115,0.251-0.023,0.356C99.426,240.593,99.455,240.614,99.488,240.629z"/>
							</g>
						</g>
						<path style="fill:#3A1081;" d="M94.718,245.695c0.185,0.52,0.768,0.789,1.302,0.599c0.534-0.19,0.816-0.766,0.631-1.286
							c-0.185-0.521-0.768-0.789-1.302-0.598C94.815,244.599,94.533,245.175,94.718,245.695z"/>
						<path style="fill:#3A1081;" d="M100.636,243.569c0.185,0.52,0.768,0.789,1.302,0.599c0.534-0.19,0.816-0.766,0.631-1.286
							c-0.185-0.521-0.768-0.789-1.302-0.599C100.733,242.473,100.451,243.048,100.636,243.569z"/>
					</g>
				</g>
				
					<linearGradient id="SVGID_00000100350928936023688140000013481586183703551129_" gradientUnits="userSpaceOnUse" x1="99.3109" y1="402.0493" x2="72.038" y2="256.5944">
					<stop  offset="0" style="stop-color:#1A8BE6"/>
					<stop  offset="0.0038" style="stop-color:#1B8CE6"/>
					<stop  offset="0.2116" style="stop-color:#42A8EA"/>
					<stop  offset="0.4169" style="stop-color:#60BFEE"/>
					<stop  offset="0.6167" style="stop-color:#76CFF0"/>
					<stop  offset="0.8086" style="stop-color:#84D9F2"/>
					<stop  offset="0.9838" style="stop-color:#88DCF2"/>
				</linearGradient>
				<path style="fill:url(#SVGID_00000100350928936023688140000013481586183703551129_);" d="M118.518,359.969
					c0,0.567-0.168,2.152-0.115,3.055c0.877,15.561-10.034,63.722-10.495,65.697c0,0.044-0.009,0.053-0.009,0.062
					c-1.851-0.177-3.507-0.443-5.367-0.585c0.044-0.159,0.071-0.319,0.106-0.478c1.993-9.556,2.002-29.74,1.842-32.104
					c-0.177-2.409-0.434-5.42,1.878-6.377c0,0-1.072-12.514-2.285-25.515c-0.319-3.436-0.664-6.89-1.027-10.167
					c-0.452-3.516-1.497-11.496-1.966-13.789c-0.239,2.081-1.054,8.378-1.612,12.665h0.018c-0.124,0.912-0.248,1.833-0.381,2.754
					c-0.026,0.204-0.044,0.39-0.071,0.558c-0.381,2.737-0.771,5.491-1.169,8.192c-1.736,11.761-3.605,22.38-4.791,25.852
					c-4.924,14.241-11.327,29.811-17.093,40.863c-0.584-0.354-1.151-0.691-1.718-1.027c-0.868-0.505-1.727-1.001-2.613-1.55
					c-0.071-0.044-0.159-0.098-0.239-0.151c5.836-8.511,7.882-39.092,13.223-38.445c0.009-0.23,0.009-0.487,0.009-0.771
					c0-5.243-1.391-20.326-2.126-33.929v-0.062c-0.044-0.762-0.089-1.532-0.124-2.285h0.018c-0.372-8.564-0.762-19.847-0.425-21.636
					c0.124-0.673,0.266-1.346,0.416-2.019h35.921c0.035,0.682,0.053,1.364,0.044,2.046c0,0.204,0-0.018,0,0.23
					c-0.009,1.346-0.009,2.684-0.009,4.012c0,6.563,0.089,12.797,0.151,17.367v0.452c0,0.177,0.009,0.372,0.009,0.54l-0.009,0.009
					c0.009,1.621,0.009,3.445-0.009,5.571v0.142C118.518,359.437,118.518,359.694,118.518,359.969z"/>
				
					<linearGradient id="SVGID_00000129204759113223811960000017515360409911165612_" gradientUnits="userSpaceOnUse" x1="100.3627" y1="353.4492" x2="100.3627" y2="201.7296">
					<stop  offset="0" style="stop-color:#D1388D"/>
					<stop  offset="0.127" style="stop-color:#D64C98"/>
					<stop  offset="0.358" style="stop-color:#DD6AAA"/>
					<stop  offset="0.5843" style="stop-color:#E280B6"/>
					<stop  offset="0.8016" style="stop-color:#E58EBD"/>
					<stop  offset="1" style="stop-color:#E692C0"/>
				</linearGradient>
				<path style="fill:url(#SVGID_00000129204759113223811960000017515360409911165612_);" d="M87.264,316.121
					c-2.312,3.906-3.87,8.228-4.862,12.656h35.921c-0.451-8.604-4.463-17.947-6.692-26.033c-0.283-1.127-0.547-2.252-0.753-3.396
					c-0.703-3.924-0.85-7.898,0.098-12.002l2.322-8.977c0.605-4.071-0.785-6.72-3.058-8.748c-1.799-1.619-4.137-2.812-6.508-3.99
					l-0.851-0.392c0.017,0.033,0.049,0.049,0.082,0.065c2.191,1.651,0.507,5.151-2.191,4.644c-6.377-1.194-9.337-7.819-13.261-6.312
					l-0.965,1.602c0.85,5.036-1.88,6.263-1.03,11.299c0.343,2.011,6.802,14.945,8.47,22.81c0.343,1.652,0.49,3.074,0.31,4.137
					c-0.016,0.065-0.016,0.114-0.033,0.18h0.045l-0.049,0.004C93.393,308.495,89.7,312.038,87.264,316.121z"/>
			</g>
			<path style="fill:#F3D559;" d="M88.717,266.615"/>
			<path style="fill:#3A1081;" d="M71.576,427.379c-2.765,7.03,2.677,7.214,16.466,7.342c1.916,0.006,3.282-1.999,0.041-3.045
				l-10.364-4.466c0,0-5.038-0.115-6.044-0.064L71.576,427.379z"/>
			<path style="fill:#3A1081;" d="M102.279,427.379c-2.765,7.03,2.677,7.214,16.466,7.342c1.916,0.006,3.282-1.999,0.041-3.045
				l-10.364-4.466c0,0-5.039-0.115-6.044-0.064L102.279,427.379z"/>
			<g>
				<g>
					<path style="fill:#3A1081;" d="M163.255,212.916h-45.21v-45.209h45.21V212.916z M121.001,209.961H160.3v-39.299h-39.299
						V209.961z"/>
				</g>
				<g>
					
						<linearGradient id="SVGID_00000137833086290643510800000012711547048260577698_" gradientUnits="userSpaceOnUse" x1="147.1033" y1="412.2373" x2="147.1033" y2="260.5171">
						<stop  offset="0" style="stop-color:#E692C0"/>
						<stop  offset="1" style="stop-color:#D1388D"/>
					</linearGradient>
					<path style="fill:url(#SVGID_00000137833086290643510800000012711547048260577698_);" d="M136.176,208.789
						c-0.056,0-0.112-0.002-0.168-0.006c-0.657-0.049-1.261-0.382-1.652-0.912l-10.569-14.288c-0.744-1.005-0.532-2.424,0.474-3.167
						c1.005-0.742,2.424-0.532,3.167,0.474l9.005,12.174l30.565-30.566c0.886-0.885,2.319-0.885,3.203,0
						c0.885,0.884,0.885,2.318,0.001,3.203l-32.424,32.425C137.35,208.552,136.774,208.789,136.176,208.789z"/>
				</g>
			</g>
			<path style="fill:#E8B8B7;" d="M85.273,266.921l0.49-0.868c0.641-1.109,1.597-2.013,2.739-2.608
				c0.181-0.082,0.361-0.164,0.556-0.244c1.073-0.425,2.212-0.909,3.382-1.416c0.016-0.011,0.029-0.009,0.045-0.021
				c9.258-4.015,21.047-10.045,25.297-12.253c1.037-0.542,1.631-0.85,1.631-0.85s0.307-0.689,0.81-1.89
				c2.077-4.961,7.511-18.552,8.157-26.549c-0.395-2.114-1.216-6.836-1.096-9.717c0.716-2.087,1.731-0.095,2.895,3.888l1.163-7.146
				c0.343-2.106,3.089-2.788,4.325-1.039c2.375,3.399-0.281,11.152-2.688,14.972c-0.36,10.01-5.863,25.221-7.523,29.594
				c-0.025,0.066-0.049,0.131-0.087,0.195l0,0c-0.81,2.446-2.321,4.595-4.351,6.183c-4.003,3.131-11.063,8.59-16.329,12.317
				c-3.311,2.348-6.692,4.447-9.873,5.909c-1.358,0.63-3.714,0.888-5.195,0.646C85.382,275.333,83.149,270.633,85.273,266.921z"/>
			<g>
				<g>
					<path style="fill:#9A575E;" d="M97.66,230.242c-4.698-0.556-10.718,0.734-12.746,5.403c-1.323,3.045-1.591,7.785,0.034,10.71
						c0.664,1.196,4.734,5.3,6.532,4.842c-1.342-4.519,1.23-11.713,4.994-13.569c-0.235,1.213-0.698,2.522-1.436,3.516
						c1.381-0.543,4.295-2.154,5.325-3.192C104.285,234.001,103.688,230.956,97.66,230.242z"/>
				</g>
			</g>
		</g>
	</g>
</g>
<g id="DESIGNED_BY_FREEPIK">
	<g>
		<g>
			<g id="XMLID_319_">
				<g id="XMLID_338_">
					<path id="XMLID_346_" style="fill:#1D262D;" d="M260.104,465.465c-0.432,0.443-0.803,0.931-1.108,1.453l-0.465-0.241
						c-0.067-0.298-0.349-0.503-0.659-0.466c-0.331,0.039-0.568,0.339-0.529,0.67c0.039,0.331,0.339,0.568,0.67,0.529
						c0.065-0.008,0.127-0.026,0.183-0.052l0.452,0.234c-0.251,0.554-0.433,1.139-0.539,1.744l0.746,0.132
						c0.23-1.306,0.85-2.507,1.792-3.473L260.104,465.465z"/>
					<path id="XMLID_345_" style="fill:#1D262D;" d="M265.591,463.163c-0.171,0-0.341,0.006-0.51,0.017l-0.074-0.626
						c0.188-0.149,0.296-0.389,0.266-0.645c-0.046-0.393-0.402-0.674-0.795-0.628c-0.393,0.046-0.674,0.402-0.628,0.795
						c0.03,0.254,0.189,0.461,0.404,0.564l0.074,0.624c-0.714,0.116-1.403,0.332-2.06,0.646l0.327,0.684
						c0.934-0.447,1.942-0.673,2.995-0.673c0.496,0,0.993,0.053,1.475,0.158l0.161-0.741
						C266.692,463.222,266.142,463.163,265.591,463.163z"/>
					<path id="XMLID_344_" style="fill:#1D262D;" d="M272.194,465.711c0.331-0.04,0.566-0.341,0.525-0.672
						c-0.04-0.331-0.341-0.566-0.672-0.526c-0.309,0.038-0.535,0.304-0.53,0.609l-0.416,0.363c-0.418-0.43-0.889-0.813-1.408-1.139
						l-0.404,0.641c1.134,0.715,2.021,1.726,2.563,2.925l0.691-0.313c-0.251-0.554-0.568-1.072-0.942-1.545l0.402-0.351
						C272.064,465.716,272.128,465.719,272.194,465.711z"/>
					<path id="XMLID_343_" style="fill:#1D262D;" d="M265.044,473.372c-0.386,0.023-0.775,0.035-1.157,0.035
						c-0.88,0-1.733-0.061-2.478-0.179c-0.39-0.062-0.846-0.155-1.27-0.292c1.046,1.861,3.069,3.125,5.388,3.125
						c2.855,0,5.262-1.916,5.95-4.504c-0.682,0.449-1.505,0.825-2.459,1.123C267.838,473.047,266.463,473.286,265.044,473.372z"/>
					<path id="XMLID_339_" style="fill:#1D262D;" d="M265.591,464.68c-3.352,0-6.079,2.666-6.079,5.943
						c0,0.426,0.046,0.849,0.137,1.261c0.673,0.483,2.706,0.89,5.348,0.731c2.88-0.173,5.297-0.957,6.672-2.159
						c-0.005-0.195-0.021-0.39-0.045-0.582C271.243,466.913,268.65,464.68,265.591,464.68z M263.432,471.194
						c-1.02,0-1.85-0.83-1.85-1.85c0-1.02,0.83-1.85,1.85-1.85s1.85,0.83,1.85,1.85
						C265.282,470.365,264.452,471.194,263.432,471.194z M268.169,470.286c-0.75,0-1.36-0.61-1.36-1.36s0.61-1.361,1.36-1.361
						c0.75,0,1.361,0.61,1.361,1.361S268.92,470.286,268.169,470.286z"/>
				</g>
				<path id="XMLID_336_" style="fill:#1D262D;" d="M281.595,466.547c-0.295-0.116-0.806-0.309-1.383-0.237
					c-0.551,0.069-0.844,0.341-0.844,1.007v0.866h2.228v1.717h-2.228v5.455h-1.932v-5.455h-1.34v-1.717h1.34v-0.888
					c0-1.68,0.896-2.783,2.568-2.783c0.643,0,1.157,0.122,1.59,0.308L281.595,466.547z"/>
				<path id="XMLID_334_" style="fill:#1D262D;" d="M286.297,469.879c-0.177-0.03-0.357-0.046-0.526-0.046
					c-0.896,0-1.51,0.548-1.51,1.614v3.908h-1.932v-7.172h1.873v0.785c0.451-0.673,1.14-0.977,2.021-0.977
					c0.414,0,0.848,0.128,1.094,0.337L286.297,469.879z"/>
				<path id="XMLID_331_" style="fill:#1D262D;" d="M293.965,471.757c0,0.222-0.015,0.489-0.037,0.651h-5.085
					c0.207,1.036,0.933,1.488,1.843,1.488c0.622,0,1.295-0.252,1.813-0.688l1.132,1.243c-0.814,0.748-1.85,1.088-3.057,1.088
					c-2.198,0-3.723-1.495-3.723-3.753c0-2.258,1.48-3.797,3.627-3.797C292.544,467.99,293.957,469.522,293.965,471.757z
					 M288.85,471.091h3.175c-0.177-0.918-0.733-1.436-1.561-1.436C289.553,469.655,289.021,470.203,288.85,471.091z"/>
				<path id="XMLID_328_" style="fill:#1D262D;" d="M301.618,471.757c0,0.222-0.015,0.489-0.037,0.651h-5.085
					c0.207,1.036,0.932,1.488,1.843,1.488c0.622,0,1.295-0.252,1.813-0.688l1.132,1.243c-0.814,0.748-1.85,1.088-3.057,1.088
					c-2.198,0-3.723-1.495-3.723-3.753c0-2.258,1.48-3.797,3.627-3.797C300.197,467.99,301.611,469.522,301.618,471.757z
					 M296.504,471.091h3.175c-0.178-0.918-0.733-1.436-1.562-1.436C297.207,469.655,296.674,470.203,296.504,471.091z"/>
				<path id="XMLID_325_" style="fill:#1D262D;" d="M309.964,471.764c0,2.154-1.495,3.775-3.471,3.775
					c-0.962,0-1.643-0.378-2.109-0.933v3.708h-1.924v-10.133h1.887v0.792c0.466-0.585,1.155-0.984,2.139-0.984
					C308.469,467.99,309.964,469.61,309.964,471.764z M304.287,471.764c0,1.132,0.747,1.976,1.843,1.976
					c1.14,0,1.85-0.881,1.85-1.976c0-1.095-0.71-1.976-1.85-1.976C305.034,469.788,304.287,470.632,304.287,471.764z"/>
				<path id="XMLID_322_" style="fill:#1D262D;" d="M313.067,465.836c0,0.696-0.54,1.229-1.236,1.229
					c-0.696,0-1.229-0.533-1.229-1.229c0-0.696,0.533-1.243,1.229-1.243C312.527,464.592,313.067,465.14,313.067,465.836z
					 M312.808,475.354h-1.932v-7.172h1.932V475.354z"/>
				<path id="XMLID_320_" style="fill:#1D262D;" d="M316.032,470.736l2.702-2.554h2.368l-3.479,3.375l3.501,3.797h-2.376
					l-2.716-2.901v2.901H314.1v-10.658h1.932V470.736z"/>
			</g>
			<g>
				<path style="fill:#1D262D;" d="M184.412,475.289v-1.055c-0.527,0.718-1.391,1.23-2.387,1.23c-1.846,0-3.149-1.406-3.149-3.706
					c0-2.256,1.289-3.721,3.149-3.721c0.952,0,1.816,0.469,2.387,1.245v-3.765h1.099v9.77H184.412z M184.412,473.37v-3.208
					c-0.395-0.615-1.245-1.143-2.124-1.143c-1.421,0-2.27,1.172-2.27,2.739c0,1.567,0.85,2.724,2.27,2.724
					C183.167,474.483,184.017,473.986,184.412,473.37z"/>
				<path style="fill:#1D262D;" d="M186.932,471.744c0-2.051,1.465-3.706,3.486-3.706c2.139,0,3.398,1.67,3.398,3.794v0.279h-5.727
					c0.088,1.333,1.025,2.446,2.549,2.446c0.805,0,1.626-0.322,2.182-0.894l0.527,0.718c-0.703,0.703-1.655,1.084-2.812,1.084
					C188.44,475.465,186.932,473.956,186.932,471.744z M190.403,468.947c-1.509,0-2.256,1.274-2.314,2.358h4.643
					C192.717,470.25,192.014,468.947,190.403,468.947z"/>
				<path style="fill:#1D262D;" d="M194.607,474.351l0.571-0.791c0.469,0.542,1.362,1.011,2.329,1.011
					c1.084,0,1.67-0.513,1.67-1.216c0-1.714-4.38-0.659-4.38-3.281c0-1.098,0.952-2.036,2.636-2.036
					c1.201,0,2.051,0.454,2.622,1.026l-0.513,0.762c-0.425-0.513-1.201-0.894-2.109-0.894c-0.967,0-1.567,0.483-1.567,1.113
					c0,1.552,4.38,0.527,4.38,3.281c0,1.187-0.952,2.138-2.783,2.138C196.306,475.465,195.324,475.113,194.607,474.351z"/>
				<path style="fill:#1D262D;" d="M201.477,466.471c0-0.41,0.337-0.747,0.732-0.747c0.41,0,0.747,0.337,0.747,0.747
					c0,0.41-0.337,0.732-0.747,0.732C201.814,467.203,201.477,466.881,201.477,466.471z M201.667,475.289v-7.075h1.099v7.075
					H201.667z"/>
				<path style="fill:#1D262D;" d="M204.582,477.105l0.556-0.82c0.586,0.703,1.289,0.967,2.3,0.967c1.172,0,2.27-0.571,2.27-2.124
					v-1.011c-0.513,0.718-1.377,1.26-2.373,1.26c-1.845,0-3.149-1.377-3.149-3.662c0-2.27,1.289-3.677,3.149-3.677
					c0.952,0,1.802,0.469,2.373,1.245v-1.069h1.099v6.87c0,2.344-1.641,3.076-3.369,3.076
					C206.237,478.16,205.416,477.926,204.582,477.105z M209.708,473.253v-3.091c-0.381-0.615-1.23-1.143-2.109-1.143
					c-1.421,0-2.27,1.128-2.27,2.695c0,1.553,0.849,2.695,2.27,2.695C208.478,474.41,209.327,473.868,209.708,473.253z"/>
				<path style="fill:#1D262D;" d="M217.413,475.289v-4.629c0-1.245-0.63-1.641-1.582-1.641c-0.864,0-1.685,0.527-2.095,1.099v5.17
					h-1.099v-7.075h1.099v1.025c0.498-0.586,1.464-1.201,2.519-1.201c1.48,0,2.256,0.747,2.256,2.285v4.966H217.413z"/>
				<path style="fill:#1D262D;" d="M219.932,471.744c0-2.051,1.465-3.706,3.486-3.706c2.139,0,3.399,1.67,3.399,3.794v0.279h-5.727
					c0.088,1.333,1.025,2.446,2.549,2.446c0.806,0,1.626-0.322,2.183-0.894l0.527,0.718c-0.703,0.703-1.655,1.084-2.812,1.084
					C221.441,475.465,219.932,473.956,219.932,471.744z M223.404,468.947c-1.509,0-2.256,1.274-2.314,2.358h4.643
					C225.718,470.25,225.015,468.947,223.404,468.947z"/>
				<path style="fill:#1D262D;" d="M233.35,475.289v-1.055c-0.527,0.718-1.392,1.23-2.388,1.23c-1.846,0-3.149-1.406-3.149-3.706
					c0-2.256,1.289-3.721,3.149-3.721c0.952,0,1.817,0.469,2.388,1.245v-3.765h1.098v9.77H233.35z M233.35,473.37v-3.208
					c-0.396-0.615-1.245-1.143-2.124-1.143c-1.421,0-2.27,1.172-2.27,2.739c0,1.567,0.849,2.724,2.27,2.724
					C232.105,474.483,232.954,473.986,233.35,473.37z"/>
				<path style="fill:#1D262D;" d="M239.692,475.289v-9.77h1.098v3.765c0.572-0.776,1.421-1.245,2.388-1.245
					c1.845,0,3.149,1.465,3.149,3.721c0,2.299-1.304,3.706-3.149,3.706c-0.996,0-1.86-0.513-2.388-1.23v1.055H239.692z
					 M242.899,474.483c1.436,0,2.286-1.157,2.286-2.724c0-1.568-0.85-2.739-2.286-2.739c-0.864,0-1.728,0.527-2.109,1.143v3.208
					C241.171,473.986,242.035,474.483,242.899,474.483z"/>
				<path style="fill:#1D262D;" d="M247.528,477.061c0.161,0.073,0.425,0.117,0.601,0.117c0.483,0,0.805-0.161,1.055-0.747
					l0.469-1.069l-2.959-7.148h1.187l2.358,5.8l2.344-5.8h1.201l-3.545,8.51c-0.425,1.025-1.143,1.421-2.08,1.435
					c-0.234,0-0.601-0.044-0.805-0.103L247.528,477.061z"/>
			</g>
		</g>
	</g>
</g>
</svg>
